<svg width="2954" height="1923" viewBox="0 0 2954 1923" fill="none" xmlns="http://www.w3.org/2000/svg">
<g clip-path="url(#clip0_1_99)">
<path d="M334.414 636.565C288.82 751.87 346.009 889.415 443.782 965.644C541.555 1041.87 670.372 1066.64 794.33 1068.88C918.289 1071.12 1041.93 1053.35 1165.88 1055.24C1289.83 1057.14 1418.69 1081.11 1517.11 1156.5C1636.47 1247.95 1691.82 1398.18 1780.02 1519.97C1919.04 1711.96 2150.27 1833.84 2387.21 1840C2509.34 1843.19 2651.06 1801.86 2695.15 1687.86" stroke="#11112B" stroke-width="0.85" stroke-linecap="round" stroke-linejoin="round"/>
<path d="M333.662 606.341C288.068 721.645 345.258 859.191 443.03 935.42C540.803 1011.65 669.62 1036.42 793.579 1038.66C917.537 1040.9 1041.18 1023.12 1165.13 1025.02C1289.08 1026.92 1417.94 1050.89 1516.36 1126.28C1635.71 1217.73 1691.07 1367.96 1779.27 1489.75C1918.29 1681.74 2149.52 1803.62 2386.46 1809.78C2508.59 1812.97 2650.31 1771.64 2694.39 1657.64" stroke="#11112B" stroke-width="0.85" stroke-linecap="round" stroke-linejoin="round"/>
<path d="M332.911 576.116C287.317 691.421 344.506 828.966 442.279 905.195C540.052 981.424 668.869 1006.19 792.827 1008.43C916.785 1010.68 1040.43 992.898 1164.38 994.794C1288.33 996.691 1417.19 1020.66 1515.61 1096.05C1634.96 1187.5 1690.31 1337.73 1778.52 1459.52C1917.53 1651.51 2148.77 1773.4 2385.71 1779.55C2507.84 1782.74 2649.56 1741.41 2693.64 1627.41" stroke="#11112B" stroke-width="0.85" stroke-linecap="round" stroke-linejoin="round"/>
<path d="M332.188 545.899C286.594 661.204 343.783 798.749 441.556 874.978C539.329 951.207 668.146 975.977 792.104 978.218C916.063 980.459 1039.71 962.681 1163.66 964.577C1287.61 966.474 1416.47 990.445 1514.89 1065.84C1634.24 1157.28 1689.59 1307.52 1777.8 1429.3C1916.81 1621.29 2148.05 1743.18 2384.98 1749.34C2507.12 1752.52 2648.84 1711.2 2692.92 1597.2" stroke="#11112B" stroke-width="0.85" stroke-linecap="round" stroke-linejoin="round"/>
<path d="M331.429 515.704C285.835 631.009 343.024 768.555 440.797 844.784C538.57 921.012 667.387 945.782 791.345 948.023C915.304 950.265 1038.95 932.486 1162.9 934.383C1286.85 936.279 1415.71 960.25 1514.13 1035.64C1633.48 1127.09 1688.83 1277.32 1777.04 1399.11C1916.05 1591.1 2147.29 1712.98 2384.23 1719.14C2506.36 1722.33 2648.08 1681 2692.16 1567" stroke="#11112B" stroke-width="0.85" stroke-linecap="round" stroke-linejoin="round"/>
<path d="M330.677 485.48C285.083 600.785 342.273 738.331 440.045 814.559C537.818 890.788 666.635 915.558 790.594 917.799C914.552 920.04 1038.19 902.262 1162.15 904.158C1286.1 906.055 1414.96 930.026 1513.38 1005.42C1632.73 1096.87 1688.08 1247.1 1776.29 1368.89C1915.3 1560.88 2146.54 1682.76 2383.47 1688.92C2505.61 1692.1 2647.33 1650.78 2691.41 1536.78" stroke="#11112B" stroke-width="0.85" stroke-linecap="round" stroke-linejoin="round"/>
<path d="M329.926 455.256C284.332 570.561 341.521 708.106 439.294 784.335C537.066 860.564 665.884 885.333 789.842 887.574C913.8 889.816 1037.44 872.037 1161.39 873.934C1285.34 875.83 1414.21 899.801 1512.62 975.194C1631.98 1066.64 1687.33 1216.87 1775.54 1338.66C1914.55 1530.65 2145.79 1652.54 2382.72 1658.69C2504.86 1661.88 2646.57 1620.55 2690.66 1506.55" stroke="#11112B" stroke-width="0.85" stroke-linecap="round" stroke-linejoin="round"/>
<path d="M329.203 425.039C283.609 540.344 340.798 677.889 438.571 754.118C536.344 830.347 665.161 855.116 789.119 857.358C913.078 859.599 1036.72 841.82 1160.67 843.717C1284.62 845.614 1413.48 869.584 1511.9 944.978C1631.26 1036.42 1686.61 1186.66 1774.81 1308.44C1913.83 1500.43 2145.06 1622.32 2382 1628.48C2504.13 1631.66 2645.85 1590.34 2689.93 1476.34" stroke="#11112B" stroke-width="0.85" stroke-linecap="round" stroke-linejoin="round"/>
<path d="M328.452 394.815C282.857 510.12 340.047 647.665 437.82 723.894C535.592 800.123 664.409 824.892 788.368 827.134C912.326 829.375 1035.97 811.596 1159.92 813.493C1283.87 815.39 1412.73 839.36 1511.15 914.754C1630.5 1006.2 1685.86 1156.43 1774.06 1278.22C1913.08 1470.21 2144.31 1592.09 2381.25 1598.25C2503.38 1601.44 2645.1 1560.11 2689.18 1446.11" stroke="#11112B" stroke-width="0.85" stroke-linecap="round" stroke-linejoin="round"/>
<path d="M327.693 364.62C282.099 479.925 339.287 617.47 437.06 693.699C534.833 769.928 663.65 794.698 787.609 796.939C911.567 799.18 1035.21 781.401 1159.16 783.298C1283.11 785.195 1411.97 809.165 1510.39 884.559C1629.74 976.005 1685.1 1126.24 1773.3 1248.02C1912.32 1440.02 2143.55 1561.9 2380.49 1568.06C2502.62 1571.24 2644.34 1529.92 2688.42 1415.92" stroke="#11112B" stroke-width="0.85" stroke-linecap="round" stroke-linejoin="round"/>
<path d="M326.941 334.395C281.347 449.7 338.536 587.245 436.309 663.474C534.081 739.703 662.899 764.473 786.857 766.714C910.815 768.955 1034.46 751.177 1158.41 753.073C1282.36 754.97 1411.22 778.941 1509.64 854.334C1628.99 945.78 1684.34 1096.01 1772.55 1217.8C1911.56 1409.79 2142.8 1531.68 2379.74 1537.83C2501.87 1541.02 2643.59 1499.69 2687.67 1385.69" stroke="#11112B" stroke-width="0.85" stroke-linecap="round" stroke-linejoin="round"/>
<path d="M326.218 304.179C280.624 419.483 337.814 557.029 435.586 633.258C533.359 709.487 662.176 734.256 786.135 736.497C910.093 738.739 1033.74 720.96 1157.69 722.857C1281.64 724.753 1410.5 748.724 1508.92 824.117C1628.27 915.563 1683.62 1065.8 1771.83 1187.58C1910.84 1379.57 2142.08 1501.46 2379.01 1507.62C2501.15 1510.8 2642.87 1469.48 2686.95 1355.48" stroke="#11112B" stroke-width="0.85" stroke-linecap="round" stroke-linejoin="round"/>
<path d="M325.467 273.954C279.873 389.259 337.062 526.805 434.835 603.034C532.607 679.262 661.425 704.032 785.383 706.273C909.341 708.515 1032.98 690.736 1156.93 692.633C1280.89 694.529 1409.75 718.5 1508.17 793.893C1627.52 885.339 1682.87 1035.57 1771.08 1157.36C1910.09 1349.35 2141.33 1471.23 2378.26 1477.39C2500.4 1480.58 2642.11 1439.25 2686.2 1325.25" stroke="#11112B" stroke-width="0.85" stroke-linecap="round" stroke-linejoin="round"/>
<path d="M324.708 243.759C279.114 359.064 336.303 496.609 434.076 572.838C531.848 649.067 660.666 673.837 784.624 676.078C908.582 678.319 1032.22 660.541 1156.18 662.437C1280.13 664.334 1408.99 688.304 1507.41 763.698C1626.76 855.144 1682.11 1005.38 1770.32 1127.16C1909.33 1319.15 2140.57 1441.04 2377.5 1447.2C2499.64 1450.38 2641.36 1409.06 2685.44 1295.06" stroke="#11112B" stroke-width="0.85" stroke-linecap="round" stroke-linejoin="round"/>
<path d="M323.956 213.535C278.362 328.84 335.551 466.385 433.324 542.614C531.097 618.843 659.914 643.613 783.872 645.854C907.83 648.095 1031.47 630.316 1155.42 632.213C1279.37 634.11 1408.24 658.08 1506.65 733.474C1626.01 824.92 1681.36 975.154 1769.57 1096.94C1908.58 1288.93 2139.82 1410.81 2376.75 1416.97C2498.89 1420.16 2640.6 1378.83 2684.69 1264.83" stroke="#11112B" stroke-width="0.85" stroke-linecap="round" stroke-linejoin="round"/>
<path d="M323.233 183.318C277.639 298.623 334.829 436.168 432.601 512.397C530.374 588.626 659.191 613.396 783.15 615.637C907.108 617.878 1030.75 600.1 1154.7 601.996C1278.65 603.893 1407.51 627.864 1505.93 703.257C1625.29 794.703 1680.64 944.937 1768.84 1066.72C1907.86 1258.71 2139.09 1380.6 2376.03 1386.76C2498.16 1389.94 2639.88 1348.62 2683.97 1234.62" stroke="#11112B" stroke-width="0.85" stroke-linecap="round" stroke-linejoin="round"/>
<path d="M322.482 153.094C276.888 268.399 334.077 405.944 431.85 482.173C529.622 558.402 658.44 583.172 782.398 585.413C906.356 587.654 1030 569.875 1153.95 571.772C1277.9 573.669 1406.76 597.639 1505.18 673.033C1624.53 764.479 1679.89 914.713 1768.09 1036.5C1907.11 1228.49 2138.34 1350.37 2375.28 1356.53C2497.41 1359.72 2639.13 1318.39 2683.21 1204.39" stroke="#11112B" stroke-width="0.85" stroke-linecap="round" stroke-linejoin="round"/>
<path d="M321.723 122.899C276.129 238.204 333.318 375.749 431.091 451.978C528.864 528.207 657.681 552.976 781.639 555.218C905.597 557.459 1029.24 539.68 1153.19 541.577C1277.14 543.474 1406 567.444 1504.42 642.838C1623.77 734.284 1679.13 884.518 1767.33 1006.3C1906.35 1198.29 2137.58 1320.18 2374.52 1326.34C2496.65 1329.52 2638.37 1288.2 2682.45 1174.2" stroke="#11112B" stroke-width="0.85" stroke-linecap="round" stroke-linejoin="round"/>
<path d="M320.971 92.6747C275.377 207.979 332.566 345.525 430.339 421.754C528.112 497.983 656.929 522.752 780.887 524.993C904.845 527.235 1028.49 509.456 1152.44 511.353C1276.39 513.25 1405.25 537.22 1503.67 612.613C1623.02 704.059 1678.38 854.293 1766.58 976.079C1905.59 1168.07 2136.83 1289.95 2373.77 1296.11C2495.9 1299.3 2637.62 1257.97 2681.7 1143.97" stroke="#11112B" stroke-width="0.85" stroke-linecap="round" stroke-linejoin="round"/>
<path d="M320.249 62.4579C274.655 177.763 331.844 315.308 429.617 391.537C527.389 467.766 656.207 492.535 780.165 494.777C904.123 497.018 1027.77 479.239 1151.72 481.136C1275.67 483.033 1404.53 507.003 1502.95 582.397C1622.3 673.843 1677.65 824.077 1765.86 945.863C1904.87 1137.85 2136.11 1259.74 2373.05 1265.9C2495.18 1269.08 2636.9 1227.76 2680.98 1113.76" stroke="#11112B" stroke-width="0.85" stroke-linecap="round" stroke-linejoin="round"/>
<path d="M319.497 32.2338C273.903 147.539 331.092 285.084 428.865 361.313C526.638 437.542 655.455 462.311 779.413 464.553C903.371 466.794 1027.01 449.015 1150.97 450.912C1274.92 452.809 1403.78 476.779 1502.2 552.173C1621.55 643.618 1676.9 793.853 1765.11 915.638C1904.12 1107.63 2135.36 1229.51 2372.29 1235.67C2494.43 1238.86 2636.14 1197.53 2680.23 1083.53" stroke="#11112B" stroke-width="0.85" stroke-linecap="round" stroke-linejoin="round"/>
<path d="M318.745 2.00915C273.151 117.314 330.34 254.859 428.113 331.088C525.886 407.317 654.703 432.087 778.661 434.328C902.62 436.569 1026.26 418.791 1150.21 420.687C1274.16 422.584 1403.03 446.554 1501.44 521.948C1620.8 613.394 1676.15 763.628 1764.36 885.414C1903.37 1077.4 2134.61 1199.29 2371.54 1205.45C2493.67 1208.63 2635.39 1167.31 2679.48 1053.31" stroke="#11112B" stroke-width="0.85" stroke-linecap="round" stroke-linejoin="round"/>
</g>
<defs>
<clipPath id="clip0_1_99">
<rect width="2719.13" height="1301.04" fill="white" transform="matrix(-0.970066 -0.242841 -0.242841 0.970066 2953.68 660.317)"/>
</clipPath>
</defs>
</svg>
