<?xml version="1.0" standalone="no"?>
<svg version="1.1" id="Layer_1_1_" xmlns="http://www.w3.org/2000/svg" xmlns:xlink="http://www.w3.org/1999/xlink" x="0px" y="0px" viewBox="0 0 2000 2000" enable-background="new 0 0 2000 2000" xml:space="preserve">
<path id="color_x5F_7" fill="#99C0E3" d="M999.6,1342.3l23.9-14.1l4.9,3.1l-18.9,68.9l-25.5,15.1l19.7-68.5L999.6,1342.3z
	 M954.3,1376.5l-19.7,68.5l25.5-15.1L979,1361l-4.9-3.1l-23.9,14.1L954.3,1376.5z M906,1404.8l-19.7,68.5l25.5-15.1l18.9-68.9
	l-4.9-3.1l-23.9,14.1L906,1404.8z M847.4,1489.9l6.6,2.7l3.3-2.7l18.9-68.9l-4.9-3.1l-23.9,14.1L847.4,1489.9z M1002.3,1469.9v-65.3
	l-4,2.3v60.6L1002.3,1469.9z M891.1,1470.5v61.4l4,1.6v-65.3 M586.2,1147l-86.6,50.9l-0.6-100.6l86.2-50.4L586.2,1147z
	 M569.4,1137.5l-0.6-61.5l-53,31l0.3,61.9L569.4,1137.5z M581.7,811l0.5,94.9l-81.9,47.9l-0.5-94.8L581.7,811z M564.4,841.5
	l-47,27.5l0.3,54.3l46.9-27.4L564.4,841.5z M658,939.6l0.3,50.3l129.8-76.4l-0.3-50.3L658,939.6z M794.4,1019.1l-0.5-88.7
	l-38.2,22.3l0.5,88.9L794.4,1019.1z M704.6,975.6l0.2,42.8l36.5-21.4l0.3-43.1L704.6,975.6z M502.6,965l0.3,50l129.8-75.4l-1-100.2
	l-43.1,25.2l0.3,50L502.6,965z M500,1082.9c0,0,93-54,90.5-52.9s45.7-26.2,45.7-26.2l-0.3-52.4l-136.3,79.1L500,1082.9z
	 M738.3,1057.8l-0.8-46.6l-40,24.3l-0.3-47.8l-40,23.9v56.5l-15.8,9.2l0.1,18.4l0.1,18.4l15.6-9.1l0,0L738.3,1057.8z M623.2,1105.3
	l15.9-9.3l-0.1-18.4l-15.9,9.3L623.2,1105.3z M637.7,1048l15.9-9.3l-0.1-18.4l-15.9,9.3L637.7,1048z M606,1135.3l15.9-9.3l-0.1-18.4
	l-15.9,9.3L606,1135.3z M589.9,1116.3l15.9-9.3l-0.1-18.4l-15.9,9.3L589.9,1116.3z M621.5,1060.6l-0.1-18.2l-15.9,9.3l0.1,18.4v0.1
	l0.1,18.4l31.8-18.8l-0.1-18.4L621.5,1060.6z M588.5,1048.2l15.9-9.3l-0.1-18.4l-15.9,9.3L588.5,1048.2z M610.8,1036.1l15.9-9.3
	l-0.1-18.4l-15.9,9.3L610.8,1036.1z M643.6,966.5l15.9-9.3l-0.1-18.4l-15.9,9.3L643.6,966.5z M695.8,917.8l26.8-15.7l-0.2-31.1
	l-26.8,15.7L695.8,917.8z M666,887.1l26.8-15.7l-0.2-31.1L665.8,856L666,887.1z M786.2,784l-34,20.2l0.2,30.9l-26.8,15.7l-0.2-30.6
	l-16.6,9.9l-0.5-91.3l78.7-46.1L786.2,784z M770.5,721.6l-45.6,26.7l0.3,52.9l44.8-26.7L770.5,721.6z M665.8,844l26.8-15.7
	l-0.2-31.1l-26.8,15.7L665.8,844z M665.5,797.4l26.8-15.7l-0.2-31.1l-26.8,15.7L665.5,797.4z M761,881.7l26.8-15.7l-0.2-31.1
	l-26.8,15.7L761,881.7z M666.3,934.9l26.8-15.7l-0.2-31.1l-26.8,15.7L666.3,934.9z M590,840.9l26.8-15.7l-0.2-31.1l-26.8,15.7
	L590,840.9z M626.2,820.9l26.8-15.7l-0.2-31.1L626,789.8L626.2,820.9z M692,1264.2l0.8,142.9l185.1-108.2l-0.7-143L692,1264.2z
	 M1181.4,1139.4c2.3-1.9,3.2-5.5,3.4-9.6c-3.1,2.5-9.5,6.3-20.7,6.8C1170.5,1141,1177.6,1142.5,1181.4,1139.4z M1153,1109.3
	l-1.8,9.5l6.9,17.2l11.4-14.7C1155.2,1116.7,1153,1109.3,1153,1109.3z M1179.4,1116.4l-0.8,5.1l10.9,4.6l-2.8-8.1
	C1184.1,1117.8,1181.7,1117.3,1179.4,1116.4z M1050.4,1540c7.4,4.2,10.8,19.3,22.4,35.4c11.7,16.1,29.7,12.9,33.2,7
	c1-1.8,0.2-6.4-1.5-12.2c-4.5-4-12.9-8.3-23.6-0.1c0,0-6.9-19-11-19c-4,0-10.1-19.9-10.2-22.8c-0.1-2.3,3.1-15.9-3.2-21.9
	c-0.4,0.2-0.8,0.4-1.1,0.6c-6.2,3.3-9.2,9.8-9.2,9.8S1043,1535.8,1050.4,1540z M1162.7,1612.1c13.3,2.4,25.3,18.7,26.1,18.8
	c0.8,0.1,24.6,7.9,30.4-1.3c2.6-4.2-1.4-10.4-6.6-15.9c-6-0.1-13.9,0.8-16.3,5.8c-4,8.4-12.7-12.4-18.6-13.5
	c-5.9-1.2-19.1-7.6-19.1-7.6s0.2-13-11.1-11.6c-1.4,3.9-2.4,7.8-2.2,11.1C1145.9,1605.9,1149.4,1609.7,1162.7,1612.1z"></path>
<path id="color_x5F_6" fill="#EFF8F9" d="M1164.1,1136.6c-1.4-0.9-2.7-2-4-3.2l9.4-12.1c0,0,0.1,8.2,0.1,14.8
	C1167.8,1136.3,1166,1136.5,1164.1,1136.6z M1183.1,1123.4L1183.1,1123.4l-4.6-1.9l0.7,11.7c2.5-1.1,4.3-2.4,5.5-3.4v-5.7l0,0
	L1183.1,1123.4z M786,484c0.1,18.3,0.2,30.1,0.2,30.1c0.1,22.1-17.7,40.1-39.8,40.2l0,0c-22.1,0.1-40.1-17.7-40.2-39.8l-0.3-57.8
	L425.6,620.5l0.5,93.2c0.1,22.1-17.7,40.1-39.8,40.2l0,0c-22.1,0.1-40.1-17.7-40.2-39.8l-0.3-46.9l-92.6,54.2L410.4,811l468.5-274
	L786,484z M1288.5,879.3l315.4,181.8l210.2-121.5l-315.2-181.8L1288.5,879.3z M1288.8,1162.1L1288.8,1162.1l0.2,50.1L1288.8,1162.1z
	 M1289,1243.4v-0.1l-0.2,0.1l38,21.9L1289,1243.4z M1288.7,1074.8l-0.2-195.5L1288.7,1074.8L1288.7,1074.8z M1288.5,879.3
	l210.4,121.3l105,60.5l0.1,121.7l-105.1-60.6l-63.5,36.7l31.7,18.2c21.8,11.8,31.8,33.7,31.8,58.5l-0.1,128.9l105.3,60.7l-0.2-363.9
	L1288.5,879.3z M901.9,1400.1L901.9,1400.1l4.1,4.6l0,0L901.9,1400.1z M847.4,1431.7L847.4,1431.7l116.4-68.4l-81.8-46.6
	l-175.5,102.6l88.4,50.3l52.5-30.7L847.4,1431.7L847.4,1431.7z M964.3,1363.6L964.3,1363.6l-14.1,8.3L964.3,1363.6z M1092.7,1780.9
	l804.1-472.6l0.6,106l-804.1,470.1l-990.1-562.1l-0.6-103.5L1092.7,1780.9z"></path>
<path id="color_x5F_5" fill="#fe8464" d="M1215.6,956.5c-0.8,4.6-7.2,10.5-12.4,14l1.3-25.8c0,0,0.1-3.5,0.2-9.7l6.1-2.3
	C1213,939,1216.8,950.1,1215.6,956.5z M1145.9,707.3c0,0,10.2-18.8-1-13s-9.3,11.8-9.3,11.8l-0.1,5.5h-3.7c0,0,4.7-15.7-2.3-18.4
	s-20.3-5.9-19.8-10.8c0,0-3.5,11.1-5.9,22.9c2.1,0.3,4.4,1.3,4.9,4.3c1,6-1.3,8.4-3,6.1c-1.1-1.5-2.3,0.4-3.7,0.7
	c-0.8,6.8-0.6,12.5,1.4,14.9c3,3.4,13.9,3.7,25.3,2.2c-0.3,1.4-0.6,2.8-0.9,4.2l25-4.3v-5.8c3.2-1.4,5.4-2.8,6.1-4.3
	c1.1-2.4,3.6-6.4,6.1-11.2C1157.5,712.5,1148.6,716.9,1145.9,707.3z M1089.9,1322.6c0.1,11.2,1,32.1,6.9,36.8c0,0,1.5,0.4,1-4
	c0,0,4.2,11,4.9,2.6c0,0,6.3,7.8,5.4,0c0,0,6.9,9,8.6,3.8s-6.6-10.2-7.1-20.4c0,0,11.2,4.4,11.8-2.5c0,0-12.8-8-13.9-10.6
	c-0.8-2-3-1.9-4.2-7.5C1100.7,1321.8,1094.6,1323.6,1089.9,1322.6z M1292.7,1302.1c-5.5-2.3-22.7-20.7-22.7-20.7
	c14.6,2.7,16.2-6.3,13.1-5.4s-22.1-4.1-22.1-4.1s-1.7-2.3-4.1-5.8c-1,1.4-6.5,9.2-12.3,11.8c1.3,1.8,2.1,3.1,2.1,3.7
	c-0.1,4.6,16.8,23.1,16.8,23.1s9.5,13.8,12.2,13.1c2.7-0.7-1.6-7.9-1.6-7.9s4.7,4.8,7.8,5.6c3.2,0.8-4-9.2-4-9.2s8.4,4.8,11.3,4.9
	s-3.4-7.3-3.4-7.3C1293.9,1306.4,1298.2,1304.4,1292.7,1302.1z M1200.8,1054.1c0,0-5.9,19.6-41.4,6c0,0-6.1,14.5-2.8,27.7
	c0,0-6.9-4.9-5.9-9.1c0,0-3.5,3-7.7,0c-1.1-0.8-2.1-2.6-2.7-5.1c-1.7,0.2-3.1,1.5-3.4,5.3c-0.7,10.3,12.1,10.5,12.1,10.5
	s1,1.5,2.7,3.8c0.3,3.9,0.9,10.4,1.1,16.8l0.1-0.7c0,0,2.2,7.4,16.4,11.9c0,0,0.1,8.2,0.1,14.8c4-0.6,7.2-1.7,9.8-2.8l-0.7-11.7
	l4.6,1.9l0,0l-4.6-1.9l0.6-3.6c-1.9,0.9-3.5,1.8-4.8,2.6c-0.4-2.3-0.9-4.8-1.6-7.2c4.4,2.6,9.1,4.5,13.9,4.8
	c16.8,1.1,21.4-17.1,21.2-37.4C1207,1074.2,1204.1,1056.2,1200.8,1054.1z"></path>
<path id="color_x5F_4" fill="#7a92fe" d="M1170.9,1034.7c0.5,0,1,0,1.5,0C1171.9,1034.7,1171.4,1034.7,1170.9,1034.7z M1159.8,977.5
	L1159.8,977.5L1159.8,977.5z M1160,978.7L1160,978.7L1160,978.7z M1159.9,978v0.1V978z M1159.7,977.1
	C1159.6,977.1,1159.6,977.1,1159.7,977.1C1159.6,977.1,1159.6,977.1,1159.7,977.1z M1160.2,979.7c0-0.1,0-0.1,0-0.2
	C1160.2,979.5,1160.2,979.6,1160.2,979.7z M1170.3,1034.7c-0.3,0-0.7,0-1,0C1169.6,1034.7,1170,1034.7,1170.3,1034.7z
	 M1174.1,1034.7c-0.6,0-1.2,0-1.8,0C1173,1034.7,1173.5,1034.7,1174.1,1034.7z M1159.4,976.7L1159.4,976.7L1159.4,976.7z
	 M1159.5,976.8L1159.5,976.8L1159.5,976.8z M1152.4,1037.8L1152.4,1037.8c1.1-0.7,2.4-1.4,3.9-1.8c1.9-0.6,4.6-0.9,7.7-1.1
	c0-0.2,0-0.3,0-0.5c0-0.8-0.1-1.6-0.1-2.4c0-0.3,0-0.6-0.1-0.9c0-0.6-0.1-1.1-0.1-1.7c0-0.4,0-0.7-0.1-1.1c0-0.8-0.1-1.5-0.1-2.3
	c0-0.3,0-0.7-0.1-1c0-0.6-0.1-1.2-0.1-1.7c0-0.3,0-0.7-0.1-1c0-0.6-0.1-1.3-0.1-1.9c0-0.4,0-0.9-0.1-1.3c0-0.5-0.1-1-0.1-1.5
	c0-0.4,0-0.7-0.1-1.1c0-0.5-0.1-1-0.1-1.5s-0.1-1-0.1-1.5s-0.1-1-0.1-1.5c0-0.3,0-0.6-0.1-1c0-0.5-0.1-1.1-0.1-1.6
	c0-0.4,0-0.7-0.1-1.1c0-0.5-0.1-1.1-0.1-1.6c0-0.3,0-0.6-0.1-0.9c0-0.5-0.1-0.9-0.1-1.4c0-0.3,0-0.6-0.1-0.9c0-0.6-0.1-1.1-0.1-1.7
	c0-0.3,0-0.5-0.1-0.8c0-0.4-0.1-0.9-0.1-1.3c0-0.3,0-0.6-0.1-0.9c0-0.5-0.1-1.1-0.1-1.6c0-0.3,0-0.5-0.1-0.8c0-0.4-0.1-0.8-0.1-1.2
	c0-0.2,0-0.5-0.1-0.7c0-0.5-0.1-1.1-0.1-1.6c0-0.2,0-0.5-0.1-0.7c0-0.4-0.1-0.7-0.1-1.1c0-0.2,0-0.4,0-0.6c0-0.5-0.1-1-0.1-1.5
	c0-0.2,0-0.4,0-0.5c0-0.3-0.1-0.7-0.1-1c0-0.2,0-0.4,0-0.5c0-0.4-0.1-0.9-0.1-1.3c0-0.2,0-0.3,0-0.5c0-0.3-0.1-0.6-0.1-0.9
	c0-0.2,0-0.3,0-0.5c0-0.4-0.1-0.7-0.1-1.1c0-0.1,0-0.2,0-0.4c0-0.3-0.1-0.5-0.1-0.7c0-0.1,0-0.3,0-0.4c0-0.3-0.1-0.6-0.1-0.9
	c0-0.1,0-0.2,0-0.3c0-0.2-0.1-0.4-0.1-0.6c0-0.1,0-0.2,0-0.3c0-0.2-0.1-0.5-0.1-0.7c0-0.1,0-0.1,0-0.2c0-0.2-0.1-0.3-0.1-0.5
	c0-0.1,0-0.1,0-0.2c0-0.2-0.1-0.3-0.1-0.5c0,0,0,0,0-0.1s-0.1-0.2-0.1-0.3v-0.1c0-0.1-0.1-0.2-0.1-0.2l0,0l-0.1-0.1l0,0
	c0,0-0.1,0-0.1,0.1C1158.1,978.1,1155.5,1003.9,1152.4,1037.8z M1164.1,1034.9L1164.1,1034.9c0-0.1,0-0.1,0-0.2
	C1164.1,1034.8,1164.1,1034.9,1164.1,1034.9z M1161.5,992.9c0-0.1,0-0.2,0-0.3C1161.5,992.6,1161.5,992.7,1161.5,992.9z
	 M1161.2,988.8c0,0.1,0,0.2,0,0.3C1161.2,989,1161.2,988.9,1161.2,988.8z M1161.3,990.7c0,0.1,0,0.2,0,0.2
	C1161.4,990.9,1161.3,990.8,1161.3,990.7z M1161.6,994.7c0,0.1,0,0.1,0,0.2C1161.7,994.8,1161.7,994.8,1161.6,994.7z M1161.8,997
	c0-0.1,0-0.3,0-0.4C1161.8,996.8,1161.8,996.9,1161.8,997z M1160.6,982.7c0,0.1,0,0.1,0,0.2C1160.6,982.8,1160.6,982.8,1160.6,982.7
	z M1161.1,987.5c0-0.1,0-0.2,0-0.3C1161,987.3,1161,987.4,1161.1,987.5z M1160.5,981.8c0-0.1,0-0.2,0-0.2S1160.5,981.7,1160.5,981.8
	z M1160.3,980.4v0.1C1160.3,980.5,1160.3,980.5,1160.3,980.4z M1160.9,985.5c0,0.1,0,0.2,0,0.2S1160.9,985.6,1160.9,985.5z
	 M1160.8,984.4c0-0.1,0-0.2,0-0.2C1160.7,984.2,1160.8,984.3,1160.8,984.4z M1188.6,1118c0.3,0,0.6,0,0.9,0
	C1189.2,1118,1188.9,1118,1188.6,1118z M1171.6,1140.3c0.1,0,0.3,0.1,0.4,0.1C1171.9,1140.4,1171.7,1140.3,1171.6,1140.3z
	 M1164.5,1136.8c-0.1,0-0.1-0.1-0.2-0.1C1164.3,1136.8,1164.4,1136.8,1164.5,1136.8z M1170.4,1139.9h-0.1
	C1170.3,1139.8,1170.3,1139.9,1170.4,1139.9z M1173.4,1140.7c-0.1,0-0.3-0.1-0.4-0.1C1173.1,1140.7,1173.2,1140.7,1173.4,1140.7z
	 M1174.3,1140.9c0.1,0,0.3,0,0.4,0.1C1174.5,1140.9,1174.4,1140.9,1174.3,1140.9z M1184.1,1123.8l0.7,0.3l0,0l4.6,1.9L1184.1,1123.8
	z M1167.4,1034.8c0.4,0,0.9,0,1.4,0C1168.3,1034.8,1167.8,1034.8,1167.4,1034.8z M1166.5,1136.4c-0.2,0-0.5,0-0.7,0.1
	C1166,1136.4,1166.3,1136.4,1166.5,1136.4z M1168.8,1139.2c0,0-0.1,0-0.1-0.1C1168.7,1139.2,1168.8,1139.2,1168.8,1139.2z
	 M1166,1137.8c-0.1-0.1-0.2-0.1-0.3-0.2C1165.8,1137.7,1165.9,1137.7,1166,1137.8z M1167.4,1138.6c-0.1-0.1-0.2-0.1-0.3-0.2
	C1167.2,1138.5,1167.3,1138.5,1167.4,1138.6z M1162.2,1135.2c0.6,0.5,1.2,0.9,1.8,1.4C1163.4,1136.1,1162.8,1135.7,1162.2,1135.2z
	 M1190.1,1117.9c0.3,0,0.5-0.1,0.8-0.1C1190.6,1117.9,1190.4,1117.9,1190.1,1117.9z M1184.5,1117.7c0.1,0,0.2,0,0.3,0.1
	C1184.7,1117.8,1184.6,1117.7,1184.5,1117.7z M1192.8,1117.4c0.2-0.1,0.4-0.1,0.6-0.2C1193.2,1117.3,1193,1117.4,1192.8,1117.4z
	 M1165.9,1034.8c0.3,0,0.6,0,0.9,0C1166.5,1034.8,1166.2,1034.8,1165.9,1034.8z M1165.4,1034.9c-0.4,0-0.8,0-1.2,0.1
	C1164.5,1034.9,1164.9,1034.9,1165.4,1034.9z M1192.1,1117.6c-0.2,0.1-0.4,0.1-0.7,0.1C1191.7,1117.7,1191.9,1117.6,1192.1,1117.6z
	 M1161.9,1134.9c-0.6-0.5-1.2-1-1.8-1.6l0,0C1160.7,1133.9,1161.3,1134.4,1161.9,1134.9z M1197.3,1115.3c0.1,0,0.1-0.1,0.2-0.2
	C1197.4,1115.2,1197.3,1115.3,1197.3,1115.3z M1195.1,1116.5c0.1-0.1,0.3-0.1,0.4-0.2C1195.4,1116.4,1195.3,1116.5,1195.1,1116.5z
	 M1194.5,1116.8c-0.2,0.1-0.3,0.1-0.5,0.2C1194.2,1117,1194.3,1116.9,1194.5,1116.8z M1196.2,1116c0.1-0.1,0.2-0.1,0.3-0.2
	C1196.5,1115.8,1196.3,1115.9,1196.2,1116z M1162,999.2c0-0.1,0-0.1,0-0.2C1162,999.1,1162,999.2,1162,999.2z M1127.8,1199.9
	c-1.9,2.7-3.6,5.7-5.2,8.9c1.6,0.7,3.4,1.2,5.4,1.3l0,0c0.8,0,1.6,0,2.5-0.1l0,0c0.4,0,0.9-0.1,1.3-0.2l0,0l0,0
	C1129.8,1203.5,1127.8,1199.9,1127.8,1199.9z M1117.2,1142.9C1117.2,1142.9,1117.2,1143,1117.2,1142.9
	C1117.2,1143,1117.2,1142.9,1117.2,1142.9z M1118.7,1141.7c0.1,0,0.1-0.1,0.2-0.1C1118.8,1141.6,1118.7,1141.7,1118.7,1141.7z
	 M1120.4,1140.4c0.1-0.1,0.2-0.1,0.3-0.2C1120.6,1140.3,1120.5,1140.4,1120.4,1140.4z M1129.6,1136c-0.9,0.4-1.9,0.8-2.9,1.2
	C1127.7,1136.8,1128.6,1136.4,1129.6,1136z M1122.3,1139.3c0.1,0,0.1-0.1,0.2-0.1C1122.4,1139.2,1122.4,1139.2,1122.3,1139.3z
	 M1147.6,1046.4C1147.6,1046.5,1147.6,1046.5,1147.6,1046.4C1147.6,1046.5,1147.6,1046.5,1147.6,1046.4z M1145.9,1050.2
	c0.1-0.1,0.2-0.2,0.3-0.3C1146.1,1050.1,1146,1050.1,1145.9,1050.2z M1147.5,1047.1v0.1V1047.1z M1147.7,1045.7L1147.7,1045.7
	L1147.7,1045.7z M1147.8,1045v-0.1C1147.8,1044.9,1147.8,1044.9,1147.8,1045z M1129.7,1135.9c0.9-0.4,1.8-0.8,2.6-1.3
	C1131.4,1135.1,1130.6,1135.5,1129.7,1135.9z M1128,1210.1L1128,1210.1L1128,1210.1z M1130.5,1210
	C1130.5,1210,1130.6,1210,1130.5,1210C1130.6,1210,1130.5,1210,1130.5,1210z M1117.7,1219.8c1.1-2.7,2.2-5.5,3.6-8.3
	C1119.9,1214.3,1118.7,1217.1,1117.7,1219.8z M1132.6,1211.8c0.4,1.2,0.8,2.5,1.2,3.9C1133.3,1214.4,1133,1213.1,1132.6,1211.8z
	 M1132.5,1211.5c-0.2-0.6-0.4-1.2-0.6-1.7l0,0C1132.1,1210.3,1132.3,1210.9,1132.5,1211.5z M1122.6,1208.7c-0.5,0.9-0.9,1.8-1.4,2.8
	C1121.7,1210.6,1122.1,1209.7,1122.6,1208.7L1122.6,1208.7z M1124.3,1138.2c0.1-0.1,0.3-0.1,0.4-0.2
	C1124.6,1138.1,1124.4,1138.1,1124.3,1138.2z M1134.9,1133.2c-0.8,0.5-1.6,0.9-2.4,1.4C1133.3,1134.1,1134.1,1133.7,1134.9,1133.2z
	 M1147.5,1048.9C1147.5,1048.9,1147.5,1048.8,1147.5,1048.9L1147.5,1048.9z M1115.8,1144.3
	C1115.7,1144.4,1115.7,1144.4,1115.8,1144.3C1115.7,1144.4,1115.7,1144.4,1115.8,1144.3z M1114.8,1227.6c0.8-2.4,1.7-5,2.8-7.6
	C1116.6,1222.6,1115.6,1225.2,1114.8,1227.6z M1163.4,1023c0-0.1,0-0.3,0-0.4C1163.4,1022.7,1163.4,1022.8,1163.4,1023z
	 M1162.1,1001.6c0-0.1,0-0.3,0-0.4C1162.1,1001.3,1162.1,1001.4,1162.1,1001.6z M1163.3,1019.7c0,0.1,0,0.1,0,0.2
	C1163.3,1019.8,1163.3,1019.7,1163.3,1019.7z M1163.6,1025.7L1163.6,1025.7L1163.6,1025.7z M1163.9,1031.7c0,0.1,0,0.1,0,0.2
	C1163.9,1031.8,1163.9,1031.7,1163.9,1031.7z M1163.8,1029c0-0.1,0-0.3,0-0.4C1163.8,1028.7,1163.8,1028.8,1163.8,1029z
	 M1163.1,1017.3c0-0.2,0-0.4,0-0.5C1163.1,1016.9,1163.1,1017.1,1163.1,1017.3z M1147.5,1048.6L1147.5,1048.6L1147.5,1048.6z
	 M1151.5,1038.6l-0.1,0.1C1151.4,1038.6,1151.5,1038.6,1151.5,1038.6z M1162.3,1003.8c0,0.1,0,0.1,0,0.2
	C1162.3,1003.9,1162.3,1003.8,1162.3,1003.8z M1162.8,1011.7c0-0.2,0-0.3,0-0.5C1162.8,1011.4,1162.8,1011.6,1162.8,1011.7z
	 M1162.9,1014.2L1162.9,1014.2L1162.9,1014.2z M1162.5,1006.5c0-0.1,0-0.3,0-0.4C1162.4,1006.2,1162.5,1006.3,1162.5,1006.5z
	 M1148.8,1042.1c0,0,0,0.1-0.1,0.1C1148.7,1042.2,1148.7,1042.2,1148.8,1042.1z M1147.5,1047.7
	C1147.5,1047.8,1147.5,1047.8,1147.5,1047.7C1147.5,1047.8,1147.5,1047.8,1147.5,1047.7z M1149.2,1041.3c0,0,0-0.1,0.1-0.1
	C1149.2,1041.2,1149.2,1041.3,1149.2,1041.3z M1147.5,1048.2L1147.5,1048.2L1147.5,1048.2z M1147.6,1048.9L1147.6,1048.9
	L1147.6,1048.9L1147.6,1048.9z M1149.8,1040.4L1149.8,1040.4L1149.8,1040.4z M1150.6,1039.4l-0.1,0.1
	C1150.5,1039.5,1150.6,1039.5,1150.6,1039.4z M1148.3,1043.1L1148.3,1043.1L1148.3,1043.1z M1151.5,1082.4c0.3,0.5,0.6,0.9,0.9,1.3
	C1152,1083.3,1151.7,1082.9,1151.5,1082.4z M1148,1044L1148,1044L1148,1044z M1174.3,1120.4c1.3-0.7,3-1.6,4.8-2.6l-0.6,3.6l0.8-5.1
	h0.1c-2.3-0.8-4.6-1.9-6.7-3.2C1173.4,1115.6,1173.9,1118.1,1174.3,1120.4z M1143.5,1052.9c0.1-0.1,0.2-0.2,0.2-0.3
	C1143.6,1052.7,1143.5,1052.8,1143.5,1052.9z M1158.4,1596.3c-0.1-0.5-0.2-1.2-0.3-1.8C1158.3,1595.1,1158.4,1595.7,1158.4,1596.3z
	 M1157.6,1592.8c0.1,0.3,0.2,0.5,0.3,0.8C1157.8,1593.3,1157.7,1593,1157.6,1592.8z M1139.4,1066.1c0-0.1,0-0.1,0-0.2
	C1139.4,1065.9,1139.4,1066,1139.4,1066.1z M1142.5,1078.2C1142.6,1078.2,1142.6,1078.3,1142.5,1078.2
	C1142.6,1078.3,1142.6,1078.2,1142.5,1078.2z M1158.3,1611.2c0.1,0,0.2,0,0.2,0.1C1158.5,1611.2,1158.4,1611.2,1158.3,1611.2z
	 M1152.7,1587.3c-0.7-0.3-1.5-0.5-2.3-0.6C1151.2,1586.8,1152,1587,1152.7,1587.3z M1156.4,1590.3c0.4,0.5,0.7,1.1,0.9,1.7
	C1157,1591.4,1156.7,1590.9,1156.4,1590.3z M1153.4,1609.6c-0.1,0-0.1-0.1-0.2-0.1C1153.3,1609.5,1153.4,1609.6,1153.4,1609.6z
	 M1154.8,1610.1c0.1,0,0.1,0.1,0.2,0.1C1154.9,1610.2,1154.8,1610.1,1154.8,1610.1z M1150.8,1608.3
	C1150.8,1608.2,1150.8,1608.2,1150.8,1608.3C1150.8,1608.2,1150.8,1608.2,1150.8,1608.3z M1156.7,1610.7c-0.1,0-0.2,0-0.2-0.1
	C1156.5,1610.7,1156.6,1610.7,1156.7,1610.7z M1141.8,1077.3L1141.8,1077.3L1141.8,1077.3z M1141.5,1076.7L1141.5,1076.7
	L1141.5,1076.7z M1144.8,1051.3C1144.8,1051.3,1144.7,1051.4,1144.8,1051.3C1144.7,1051.4,1144.8,1051.3,1144.8,1051.3z
	 M1139.5,1064.1v0.1C1139.5,1064.2,1139.5,1064.2,1139.5,1064.1z M1140,1060.9c0-0.1,0-0.1,0-0.2
	C1140.1,1060.7,1140,1060.8,1140,1060.9z M1141.1,1076L1141.1,1076L1141.1,1076z M1140.5,1059c0,0.1-0.1,0.2-0.1,0.3
	C1140.5,1059.2,1140.5,1059.1,1140.5,1059z M1142.1,1077.7c0,0,0,0.1,0.1,0.1C1142.2,1077.8,1142.2,1077.8,1142.1,1077.7z
	 M1141,1057.5c0-0.1,0-0.1,0.1-0.2C1141.1,1057.4,1141.1,1057.4,1141,1057.5z M1141.8,1055.7c-0.1,0.1-0.1,0.2-0.2,0.4
	C1141.7,1055.9,1141.8,1055.8,1141.8,1055.7z M1142.6,1054.3l0.1-0.1C1142.6,1054.2,1142.6,1054.2,1142.6,1054.3z M1139.7,1062.4
	c0,0.1,0,0.2,0,0.3C1139.7,1062.6,1139.7,1062.5,1139.7,1062.4z M1196.8,1618.6c0.6-0.8,1.3-1.5,2.2-2.1
	C1198.1,1617.1,1197.4,1617.8,1196.8,1618.6z M1198.7,1633.2c-0.1,0-0.2,0-0.3,0C1198.6,1633.2,1198.7,1633.2,1198.7,1633.2z
	 M1188.8,1630.9c0,0-0.1-0.1-0.3-0.2C1188.6,1630.8,1188.7,1630.9,1188.8,1630.9c0,0,0.1,0,0.2,0
	C1188.9,1630.9,1188.8,1630.9,1188.8,1630.9z M1196.7,1632.8c0.1,0,0.2,0.1,0.4,0.1C1196.9,1632.9,1196.8,1632.9,1196.7,1632.8z
	 M1195.5,1620.7c0.3-0.3,0.6-0.7,0.8-1.2c0.1-0.3,0.3-0.6,0.5-0.9c-0.2,0.3-0.4,0.6-0.5,0.9C1196,1620,1195.8,1620.4,1195.5,1620.7z
	 M1498.9,1235.5L1498.9,1235.5v0.4V1235.5z M1288.9,1212.2v-1.9v-0.7V1212.2z M1187.6,1629.8c0.4,0.4,0.7,0.7,0.9,0.9
	C1188.3,1630.5,1188,1630.2,1187.6,1629.8z M1220.1,1269.4c0,0.2,0.1,0.3,0.1,0.4C1220.2,1269.7,1220.2,1269.5,1220.1,1269.4z
	 M1220.2,1269.9c0,0.1,0,0.2,0,0.2S1220.3,1270,1220.2,1269.9z M1220.1,1269.4c0-0.2-0.1-0.4-0.1-0.6
	C1220,1269,1220.1,1269.2,1220.1,1269.4z M1180.6,1607.8c0.4,0.4,0.8,0.8,1.3,1.3C1181.5,1608.6,1181.1,1608.1,1180.6,1607.8z
	 M1181.9,1609c0.3,0.4,0.7,0.7,1,1.1C1182.5,1609.8,1182.2,1609.4,1181.9,1609z M1175.2,1605.3c0.9,0.3,1.8,0.5,2.5,0.7
	c0.9,0.2,1.9,0.8,2.9,1.8c-1-1-2-1.6-2.9-1.8C1177,1605.8,1176.1,1605.6,1175.2,1605.3z M1158.6,1598.3L1158.6,1598.3
	c0,0,0-0.8-0.1-2C1158.6,1597.5,1158.6,1598.3,1158.6,1598.3z M1190.2,1631.3c0.1,0,0.2,0,0.3,0.1
	C1190.4,1631.3,1190.3,1631.3,1190.2,1631.3z M1151.9,1608.9c0,0,0.1,0,0.1,0.1C1152,1608.9,1151.9,1608.9,1151.9,1608.9z
	 M1182.6,1624.4c0.7,0.7,1.3,1.3,1.9,1.9C1183.9,1625.7,1183.2,1625,1182.6,1624.4z M1189.3,1631c-0.1,0-0.2,0-0.2-0.1
	C1189.1,1631,1189.2,1631,1189.3,1631z M1189.8,1631.2c-0.2,0-0.3-0.1-0.4-0.1C1189.5,1631.1,1189.7,1631.1,1189.8,1631.2z
	 M1194.2,1621.5h-0.1H1194.2z M1186.8,1628.8c-0.3-0.4-0.7-0.8-1.1-1.2C1186.1,1628.1,1186.5,1628.5,1186.8,1628.8z M1169.4,1124.4
	c0-1.9,0-3.2,0-3.2S1169.4,1122.5,1169.4,1124.4z M1183.4,1136.6c-0.2,0.3-0.3,0.7-0.5,1C1183.1,1137.3,1183.2,1137,1183.4,1136.6z
	 M1183.8,1135.5c-0.1,0.3-0.2,0.7-0.4,1C1183.6,1136.2,1183.7,1135.9,1183.8,1135.5z M1183.9,1135.3c0.1-0.4,0.2-0.7,0.3-1.1
	C1184.1,1134.5,1184,1134.9,1183.9,1135.3z M1184.7,1131.4c0,0.5-0.1,0.9-0.2,1.3C1184.6,1132.3,1184.6,1131.8,1184.7,1131.4z
	 M1184.2,1134.1c0.1-0.4,0.2-0.9,0.3-1.3C1184.4,1133.2,1184.3,1133.7,1184.2,1134.1z M1178.2,1140.8c0.1,0,0.3-0.1,0.4-0.1
	C1178.4,1140.8,1178.3,1140.8,1178.2,1140.8z M1179.6,1140.4c-0.1,0-0.2,0.1-0.4,0.1C1179.4,1140.5,1179.5,1140.5,1179.6,1140.4z
	 M1178.5,1121.5l0.7,11.7c-2.5,1.2-5.8,2.2-9.8,2.8l0,0c-0.2,0-0.5,0.1-0.7,0.1l0,0c6.8-0.9,11.4-3.1,14.3-5c-1,0.7-2.3,1.4-3.8,2.1
	L1178.5,1121.5z M1180.5,1140c-0.1,0.1-0.2,0.1-0.3,0.2C1180.3,1140.1,1180.4,1140,1180.5,1140z M1182.7,1137.8
	c-0.1,0.2-0.3,0.5-0.5,0.7C1182.4,1138.2,1182.6,1138,1182.7,1137.8z M1181.4,1139.4c0.3-0.2,0.5-0.5,0.7-0.7
	C1181.9,1138.9,1181.6,1139.2,1181.4,1139.4z M1164.1,1136.6L1164.1,1136.6L1164.1,1136.6L1164.1,1136.6z M1137.3,1131.7
	c-0.7,0.5-1.5,0.9-2.2,1.4C1135.8,1132.7,1136.5,1132.2,1137.3,1131.7z M1182.3,1117.3c0.2,0.1,0.4,0.1,0.6,0.2
	C1182.8,1117.4,1182.5,1117.3,1182.3,1117.3z M1180.2,1116.7c0.3,0.1,0.7,0.2,1,0.3C1180.9,1116.9,1180.5,1116.8,1180.2,1116.7z
	 M1183.2,1131c0.1-0.1,0.3-0.2,0.4-0.3C1183.5,1130.8,1183.4,1130.9,1183.2,1131z M1155,1086.5c0.9,0.8,1.6,1.3,1.6,1.3l0,0
	C1156.6,1087.8,1155.9,1087.3,1155,1086.5z M1155.9,1074.4c-0.1,0.8-0.2,1.6-0.2,2.4C1155.8,1075.9,1155.8,1075.1,1155.9,1074.4z
	 M1184.2,1130.2c-0.1,0.1-0.2,0.1-0.3,0.2C1184,1130.4,1184.1,1130.3,1184.2,1130.2z M1169.5,1127.7c0-0.3,0-0.6,0-0.9
	C1169.5,1127.1,1169.5,1127.4,1169.5,1127.7z M1177.4,1140.9c-0.1,0-0.2,0-0.3,0C1177.2,1141,1177.3,1141,1177.4,1140.9z
	 M1168.7,1136.1L1168.7,1136.1c-0.4,0.1-0.9,0.1-1.3,0.2C1167.9,1136.3,1168.3,1136.2,1168.7,1136.1z M1151.2,1118.8
	c0.6,2.4,1.5,4.7,2.8,6.9L1151.2,1118.8L1151.2,1118.8z M1139.5,1069.2L1139.5,1069.2L1139.5,1069.2z M1138.8,1085.1
	c0-0.1-0.1-0.1-0.1-0.2C1138.7,1085,1138.7,1085.1,1138.8,1085.1z M1139.5,1085.9C1139.4,1085.9,1139.4,1085.9,1139.5,1085.9
	C1139.4,1085.9,1139.4,1085.9,1139.5,1085.9z M1140.4,1086.6c-0.1,0-0.1-0.1-0.2-0.1C1140.2,1086.6,1140.3,1086.6,1140.4,1086.6z
	 M1175.9,1141c-0.1,0-0.1,0-0.2,0C1175.8,1141,1175.9,1141,1175.9,1141z M1141.3,1087.3c-0.1,0-0.1-0.1-0.2-0.1
	C1141.2,1087.2,1141.2,1087.2,1141.3,1087.3z M1142.2,1087.7C1142.1,1087.7,1142.1,1087.7,1142.2,1087.7
	C1142.1,1087.7,1142.1,1087.7,1142.2,1087.7z M1139.4,1067.5C1139.4,1067.6,1139.4,1067.6,1139.4,1067.5
	C1139.4,1067.6,1139.4,1067.6,1139.4,1067.5z M1139.7,1070.7L1139.7,1070.7L1139.7,1070.7z M1138.1,1084.1c0-0.1-0.1-0.1-0.1-0.2
	C1138,1084,1138,1084.1,1138.1,1084.1z M1137.5,1083L1137.5,1083L1137.5,1083z M1137.1,1081.7c0,0.1,0,0.1,0.1,0.2
	C1137.1,1081.8,1137.1,1081.7,1137.1,1081.7z M1136.9,1080.2c0,0.1,0,0.2,0,0.2C1136.9,1080.4,1136.9,1080.3,1136.9,1080.2z
	 M1150.7,1078.7L1150.7,1078.7c0,0-0.5,0.4-1.3,0.8C1150.2,1079.1,1150.7,1078.7,1150.7,1078.7z M1155.6,1079.1L1155.6,1079.1
	L1155.6,1079.1z M1184.7,1131.3c0.2-1.6,0.2-3.3,0.1-5v3.5l0,0C1184.8,1130.3,1184.7,1130.8,1184.7,1131.3z M1143.2,1088.2
	c-0.1,0-0.1-0.1-0.2-0.1C1143.1,1088.1,1143.1,1088.2,1143.2,1088.2z M1186.7,1118c0.5,0,1,0,1.5,0
	C1187.6,1118,1187.2,1118,1186.7,1118z M1145.8,1089h0.1C1145.9,1089,1145.9,1089,1145.8,1089z M1145,1088.8L1145,1088.8
	L1145,1088.8z M1144.2,1088.5c-0.1,0-0.1,0-0.2-0.1C1144.1,1088.5,1144.1,1088.5,1144.2,1088.5z M1146.7,1089.1h0.1
	C1146.7,1089.1,1146.7,1089.1,1146.7,1089.1z M1147.9,1079.9c-0.4,0.1-0.8,0.1-1.2,0.1C1147.1,1080,1147.5,1080,1147.9,1079.9z
	 M1204,1060.7L1204,1060.7L1204,1060.7z M1082.3,1498.5c0-0.1,0-0.1-0.1-0.2C1082.3,1498.3,1082.3,1498.4,1082.3,1498.5z
	 M1100,1321.9L1100,1321.9L1100,1321.9z M1081.4,1496.5c0-0.1-0.1-0.1-0.1-0.2C1081.3,1496.4,1081.4,1496.5,1081.4,1496.5z
	 M1092.1,1502.7c-0.4-0.1-0.8-0.2-1.3-0.2c-0.2,0-0.4,0-0.6,0c0.8,0,1.6,0.1,2.4,0.4C1092.4,1502.8,1092.3,1502.7,1092.1,1502.7z
	 M1096.4,1507.4c0,0.1,0,0.2,0.1,0.3C1096.4,1507.6,1096.4,1507.5,1096.4,1507.4z M1076.1,1558.8c-0.6-1.2-1.2-2.3-1.8-3.3
	C1074.9,1556.5,1075.5,1557.7,1076.1,1558.8z M1076.1,1558.8c2.6,5.3,4.8,11.3,4.8,11.3l0,0
	C1080.9,1570.1,1078.7,1564.1,1076.1,1558.8z M1096.5,1508.4c0,0.1,0,0.2,0,0.3C1096.6,1508.6,1096.5,1508.5,1096.5,1508.4z
	 M1080.1,1495.2C1080.2,1495.2,1080.2,1495.2,1080.1,1495.2C1080.2,1495.2,1080.2,1495.2,1080.1,1495.2z M1080.7,1495.6l-0.1-0.1
	C1080.6,1495.6,1080.6,1495.6,1080.7,1495.6z M1081.1,1496.1l-0.1-0.1C1081,1496,1081,1496,1081.1,1496.1z M1096,1505.9
	c0,0.1,0.1,0.2,0.1,0.3C1096,1506.1,1096,1506,1096,1505.9z M1103.7,1584.8c0.1,0,0.2-0.1,0.2-0.2
	C1103.8,1584.7,1103.8,1584.7,1103.7,1584.8z M1170.8,1572.2c0.1-0.1,0.1-0.2,0.2-0.3C1170.9,1572,1170.9,1572.1,1170.8,1572.2z
	 M1171.4,1571.4c-0.1,0.1-0.1,0.2-0.2,0.3C1171.2,1571.6,1171.3,1571.5,1171.4,1571.4z M1171.9,1604.2c0.6,0.2,1.2,0.5,1.8,0.7
	C1173.1,1604.6,1172.5,1604.4,1171.9,1604.2z M1170.2,1603.5c-0.2-0.1-0.4-0.2-0.6-0.3C1169.7,1603.3,1170,1603.4,1170.2,1603.5z
	 M1097.3,1587c0.2,0,0.3,0,0.5-0.1C1097.6,1587,1097.5,1587,1097.3,1587z M1082.6,1500.1c0-0.1,0-0.2,0-0.3
	C1082.6,1499.9,1082.6,1500,1082.6,1500.1z M1095.6,1505.3c0,0.1,0.1,0.2,0.1,0.2C1095.7,1505.4,1095.7,1505.3,1095.6,1505.3z
	 M1095.8,1565.7c0.5,0.1,1,0.2,1.4,0.3C1096.8,1565.9,1096.3,1565.8,1095.8,1565.7z M1096.2,1506.6c0,0.1,0.1,0.2,0.1,0.3
	C1096.3,1506.8,1096.2,1506.7,1096.2,1506.6z M1095.3,1504.7c0,0.1,0.1,0.1,0.1,0.2C1095.4,1504.8,1095.3,1504.8,1095.3,1504.7z
	 M1082.6,1504.2c-0.1,0-0.1,0.1-0.2,0.1C1082.5,1504.2,1082.5,1504.2,1082.6,1504.2z M1060.4,1516.2c0.1,0.8,0.1,1.7,0.1,2.5
	C1060.5,1517.9,1060.4,1517.1,1060.4,1516.2z M1059.9,1526.5c-0.1,0.5-0.1,0.9-0.1,1.3C1059.8,1527.4,1059.8,1527,1059.9,1526.5z
	 M1060.3,1515.4c-0.1-0.6-0.1-1.1-0.2-1.7C1060.1,1514.3,1060.2,1514.8,1060.3,1515.4z M1063.7,1560.4c-0.1-0.1-0.2-0.3-0.2-0.4
	C1063.6,1560.1,1063.7,1560.3,1063.7,1560.4z M1060,1530.1c0.3,1.2,0.7,2.9,1.3,4.8C1060.8,1533,1060.3,1531.4,1060,1530.1z
	 M1059.7,1528.3c0-0.1,0-0.3,0-0.6C1059.7,1528,1059.7,1528.2,1059.7,1528.3c0,0.3,0.1,0.7,0.2,1.2
	C1059.8,1529,1059.7,1528.6,1059.7,1528.3z M1100.7,1321.7L1100.7,1321.7L1100.7,1321.7z M1102.1,1321.3h0.1
	C1102.2,1321.2,1102.1,1321.3,1102.1,1321.3z M1102.8,1321h-0.1C1102.7,1321.1,1102.7,1321.1,1102.8,1321z M1133.3,1277.7
	c0,0,0-0.1,0.1-0.2C1133.3,1277.6,1133.3,1277.7,1133.3,1277.7z M1133.3,1277.7C1133.3,1277.8,1133.3,1277.8,1133.3,1277.7
	C1133.3,1277.8,1133.3,1277.8,1133.3,1277.7z M1082.6,1501.7c0,0.1,0,0.3,0,0.4C1082.6,1501.9,1082.6,1501.8,1082.6,1501.7z
	 M1082.6,1502.8c0,0.1,0,0.2,0,0.4C1082.5,1503,1082.5,1502.9,1082.6,1502.8z M1165.2,1601.4c0.4,0.2,0.7,0.3,1.1,0.5
	C1165.9,1601.7,1165.5,1601.5,1165.2,1601.4z M1082.5,1499.3c0-0.1,0-0.2-0.1-0.3C1082.4,1499.1,1082.5,1499.2,1082.5,1499.3z
	 M1082.6,1500.7c0,0.1,0,0.2,0,0.4C1082.6,1500.9,1082.6,1500.8,1082.6,1500.7z M1082.4,1504.3L1082.4,1504.3L1082.4,1504.3z
	 M1085.8,1503.1c0.6-0.2,1.2-0.3,1.8-0.4c-0.3,0-0.6,0.1-0.9,0.2C1086.4,1502.9,1086.1,1503,1085.8,1503.1z M1073.8,1554.8
	c-0.3-0.5-0.6-0.9-0.9-1.3C1073.2,1553.9,1073.5,1554.3,1073.8,1554.8z M1072.9,1553.4c-0.6-0.8-1.2-1.5-1.8-1.9
	C1071.7,1552,1072.3,1552.6,1072.9,1553.4z M1090.2,1502.5c-0.4,0-0.9,0-1.3,0.1c-0.4,0-0.8,0.1-1.2,0.2
	C1088.4,1502.6,1089.3,1502.5,1090.2,1502.5z M1070,1551.1c0.3,0,0.5,0.1,0.8,0.2C1070.5,1551.2,1070.2,1551.1,1070,1551.1z
	 M1085.8,1503.1c-1.5,0.4-2.7,0.9-3.2,1.1C1083.1,1504,1084.3,1503.5,1085.8,1503.1z M1081.6,1496.9c0,0.1,0.1,0.1,0.1,0.2
	C1081.7,1497,1081.7,1496.9,1081.6,1496.9z M1203.7,1059.7c0-0.1-0.1-0.2-0.1-0.3C1203.6,1059.6,1203.7,1059.7,1203.7,1059.7z
	 M1203.3,1058.5c0,0.1,0.1,0.2,0.1,0.3C1203.3,1058.7,1203.3,1058.6,1203.3,1058.5z M1204.3,1061.8c0,0.1,0,0.1,0,0.2
	C1204.3,1062,1204.3,1061.9,1204.3,1061.8z M1204.7,1063.2c0-0.1-0.1-0.2-0.1-0.3C1204.6,1063,1204.6,1063.1,1204.7,1063.2z
	 M1203,1057.6c0,0.1,0.1,0.2,0.1,0.3C1203,1057.8,1203,1057.7,1203,1057.6z M1202.3,1056.1c0-0.1-0.1-0.1-0.1-0.2
	C1202.2,1056,1202.3,1056.1,1202.3,1056.1z M1256.8,1266.3c0,0.1-0.1,0.1-0.1,0.2C1256.7,1266.4,1256.8,1266.3,1256.8,1266.3z
	 M1201.6,1055c0-0.1-0.1-0.1-0.1-0.2C1201.5,1054.8,1201.6,1054.9,1201.6,1055z M1201.3,1054.5l-0.1-0.1
	C1201.2,1054.4,1201.2,1054.5,1201.3,1054.5z M1201.9,1055.3c0,0.1,0.1,0.1,0.1,0.2C1201.9,1055.4,1201.9,1055.4,1201.9,1055.3z
	 M1204.9,1064.4c0-0.1,0-0.2-0.1-0.3C1204.9,1064.2,1204.9,1064.3,1204.9,1064.4z M1202.6,1056.8v0.1
	C1202.7,1056.9,1202.6,1056.9,1202.6,1056.8z M1205.2,1065.4c0,0.1,0,0.1,0,0.2C1205.2,1065.5,1205.2,1065.4,1205.2,1065.4z
	 M1207.1,1075.3c0,0.1,0,0.3,0.1,0.4C1207.1,1075.6,1207.1,1075.4,1207.1,1075.3z M1207.7,1079.3c0,0.2,0.1,0.4,0.1,0.7
	C1207.7,1079.7,1207.7,1079.5,1207.7,1079.3z M1206.9,1074.2c0,0.1,0,0.3,0.1,0.4C1206.9,1074.5,1206.9,1074.3,1206.9,1074.2z
	 M1207.4,1077.2c0.1,0.7,0.2,1.3,0.3,1.9C1207.6,1078.6,1207.5,1077.9,1207.4,1077.2z M1207.3,1076.8c0-0.1,0-0.3-0.1-0.5
	C1207.2,1076.4,1207.3,1076.6,1207.3,1076.8z M1205.7,1068c0,0.1,0,0.2,0,0.2C1205.8,1068.2,1205.7,1068.1,1205.7,1068z
	 M1206,1069.2c0,0.1,0,0.2,0.1,0.3C1206,1069.4,1206,1069.3,1206,1069.2z M1206.2,1070.5c0,0.1,0,0.2,0.1,0.3
	C1206.2,1070.7,1206.2,1070.6,1206.2,1070.5z M1206.7,1073.1c0,0.1,0,0.1,0,0.2C1206.7,1073.2,1206.7,1073.2,1206.7,1073.1z
	 M1206.5,1072c0-0.1,0-0.1,0-0.2C1206.5,1071.8,1206.5,1071.9,1206.5,1072z M1161.6,1599.7c0.1,0.1,0.3,0.1,0.5,0.2
	C1161.9,1599.9,1161.7,1599.8,1161.6,1599.7z M1203.6,1633.9c0.1,0,0.3,0,0.4,0C1203.8,1633.9,1203.7,1633.9,1203.6,1633.9z
	 M1201.7,1633.7c0.1,0,0.2,0,0.3,0C1201.9,1633.7,1201.8,1633.7,1201.7,1633.7z M1256.3,1267c0.1-0.1,0.1-0.2,0.2-0.2
	C1256.4,1266.8,1256.4,1266.9,1256.3,1267z M1208.9,1634c0.1,0,0.3,0,0.4,0C1209.2,1634,1209,1634,1208.9,1634z M1205.6,1634
	c-0.2,0-0.3,0-0.5,0C1205.3,1634,1205.5,1634,1205.6,1634z M1191.7,1631.7c0.1,0,0.2,0.1,0.4,0.1
	C1191.9,1631.8,1191.8,1631.7,1191.7,1631.7z M1148.2,1606.1L1148.2,1606.1L1148.2,1606.1z M1194.8,1621.3c0.2-0.1,0.4-0.3,0.6-0.5
	C1195.2,1621,1195,1621.1,1194.8,1621.3z M1160.6,1611.7c-0.1,0-0.1,0-0.2,0C1160.5,1611.7,1160.5,1611.7,1160.6,1611.7z
	 M1191.2,1631.6c-0.1,0-0.2-0.1-0.3-0.1C1191,1631.5,1191.1,1631.5,1191.2,1631.6z M1214.7,1616.1c0.1,0.1,0.2,0.2,0.2,0.3
	C1214.9,1616.3,1214.8,1616.2,1214.7,1616.1z M1200,1633.4c0.1,0,0.3,0,0.5,0.1C1200.3,1633.5,1200.1,1633.5,1200,1633.4z
	 M1252.6,1271.5C1252.7,1271.4,1252.7,1271.4,1252.6,1271.5C1252.7,1271.4,1252.7,1271.4,1252.6,1271.5z M1253.5,1270.5
	L1253.5,1270.5L1253.5,1270.5z M1251.8,1272.3C1251.8,1272.4,1251.8,1272.4,1251.8,1272.3
	C1251.8,1272.4,1251.8,1272.4,1251.8,1272.3z M1256,1267.4c0,0-0.1,0.1-0.1,0.2C1256,1267.5,1256,1267.4,1256,1267.4z
	 M1254.2,1269.7C1254.2,1269.7,1254.2,1269.6,1254.2,1269.7C1254.2,1269.6,1254.2,1269.7,1254.2,1269.7z M1217.1,1619.3
	L1217.1,1619.3L1217.1,1619.3z M1217.8,1631.2c-0.1,0.1-0.2,0.2-0.3,0.3C1217.6,1631.4,1217.7,1631.3,1217.8,1631.2z M1218.5,1630.5
	c-0.1,0.1-0.2,0.2-0.2,0.3C1218.4,1630.7,1218.4,1630.6,1218.5,1630.5z M1216.9,1631.9c-0.1,0.1-0.3,0.2-0.4,0.2
	C1216.7,1632.1,1216.8,1632,1216.9,1631.9z M1136.4,1229c-0.1-0.9-0.3-1.7-0.4-2.6C1136.2,1227.3,1136.3,1228.2,1136.4,1229z
	 M1215.6,1632.7c0.1-0.1,0.3-0.1,0.4-0.2C1215.8,1632.5,1215.7,1632.6,1215.6,1632.7z M627.9,1008.6c0.4-0.3,0.9-0.5,1.3-0.7
	C628.8,1008.1,628.3,1008.3,627.9,1008.6z M610.6,1018.4c-1.1,0.6-2.1,1.2-3.2,1.8C608.5,1019.6,609.5,1019,610.6,1018.4z
	 M636.3,1003.8c0,0,0,0-0.1,0.1C636.2,1003.9,636.3,1003.8,636.3,1003.8z M634.1,1005.1c0.2-0.1,0.4-0.2,0.6-0.3
	C634.5,1004.8,634.3,1005,634.1,1005.1z M632.6,1005.9c-0.3,0.2-0.6,0.4-1,0.6C632,1006.2,632.3,1006.1,632.6,1005.9z M626.7,1009.3
	c0.3-0.2,0.5-0.3,0.8-0.5C627.2,1009,626.9,1009.1,626.7,1009.3z M604.4,1021.9c1-0.6,2-1.2,3.1-1.7
	C606.4,1020.8,605.3,1021.4,604.4,1021.9z M635.8,1004.1c-0.3,0.1-0.6,0.3-1.1,0.6C635.2,1004.4,635.5,1004.2,635.8,1004.1z
	 M626.7,1026.8l-0.1-17.5l0,0L626.7,1026.8z M1897.1,1307.6L1093,1780.2l-990.1-562.1l152.6-88.8l0.7,134.7l157.2,89.6l468.5-273.9
	L880.1,766l29.1-16.9l79.3,44.9l-12.4,7.3l55.4,31.6c8.5,14.7,33.6,56,51.4,62.1c8.4,2.9,15.1,1.2,20.1-2.1
	c-0.2,32-0.2,57.2-0.2,57.2l10.3,197.4l0,0l-3.8-72.9l3.8,72.9c-4.8,6.1-6.5,12.3-6.5,12.3l-16.2,48.4c-7.3,2.1-12.1,5.7-6.9,11.8
	c0.7,0.8,1.4,1.5,2.2,2.2l0.7-2l-6.8,20.4l1.9,72.3c0,0,1.4,1.2,4,2.2l1.1,6.3c0.9,0.7,2.1,1.2,3.3,1.4c0.1,11.2,1,32.1,6.9,36.8
	c0,0,1.5,0.4,1-4c0,0,4.2,11,4.9,2.6c0,0,6.3,7.8,5.4,0c0,0,6.9,9,8.6,3.8s-6.6-10.2-7.1-20.4c0,0,11.2,4.4,11.8-2.5
	c0,0-12.8-8-13.9-10.6c-0.8-2-3-1.9-4.2-7.5l0,0c0.7-0.3,1.2-0.4,1.2-0.4v-6.8c0.6-0.3,1.2-0.6,1.8-0.9l5.2-44.8v-28.7
	c0,0,1.2-4.8,3.4-11.5c-0.3,0.8-0.5,1.5-0.7,2.3c9.4,0.5,18.2-0.2,22.4-0.9c0.5,3.3,0.8,6.8,0.9,10.5c0.7,19.7-2.7,33.3-3.7,37.1
	c-3.3,6-8.3,20-5,47.9c5.1,42.4,21.2,72.7,15.1,89c-0.7,1.9-1.4,4.3-2,6.9l0,0c-10.9,7.6-30.7,16.2-39.1,39.9
	c-7.8,21.8-22.4,32.4-24.4,33.8c-1.9-0.6-3.7-0.3-3.7-0.3s-11.5,8.7-18,12.4l0,0c-0.4,0.2-0.8,0.4-1.1,0.6c-6.2,3.3-9.2,9.8-9.2,9.8
	s-3.3,18.9,4.2,23.1c4.9,2.8,8.1,10.4,13.1,20c0.1,0.2,0.2,0.3,0.2,0.5c0.3,0.6,0.6,1.2,1,1.8l0,0l0,0c0.7,1.4,1.5,2.8,2.4,4.2l0,0
	c1.1,1.9,2.3,3.9,3.7,5.9l0,0c0.7,1,1.4,2,2.1,3l0,0l0,0l0,0c1.8,2.5,3.8,4.6,5.9,6.2c0.4,0.3,0.8,0.6,1.2,0.9
	c5.6,4,11.7,5.1,16.7,4.5c-0.1,0-0.2,0-0.3,0c0.1,0,0.2,0,0.3,0c0.2,0,0.5-0.1,0.7-0.1s0.3,0,0.5-0.1c0.2,0,0.4-0.1,0.7-0.1
	c0.1,0,0.2,0,0.2,0c-0.1,0-0.2,0-0.2,0c2.1-0.4,3.8-1.1,5.2-2.1c0.1-0.1,0.2-0.1,0.2-0.2c0.3-0.2,0.6-0.4,0.8-0.6l0,0l0,0
	c0.6-0.5,1-1,1.3-1.6c0.8-1.4,0.5-4.4-0.5-8.3c0-0.1,0-0.2-0.1-0.2c-0.1-0.3-0.1-0.5-0.2-0.8c0-0.1,0-0.1,0-0.2s-0.1-0.2-0.1-0.3
	c-0.1-0.3-0.2-0.6-0.2-0.9c0-0.1-0.1-0.2-0.1-0.3c-0.1-0.2-0.1-0.4-0.2-0.6c0-0.1-0.1-0.2-0.1-0.3c0-0.1-0.1-0.2-0.1-0.4l0,0
	c-3.2-11.1-9.6-26.8-12-36.7c-0.1-0.5-0.2-1-0.3-1.5v-0.1c-0.1-0.5-0.2-0.9-0.3-1.3v-0.1c-0.1-0.4-0.1-0.8-0.2-1.1
	c0-0.1,0-0.1,0-0.2c-0.1-0.4-0.1-0.8-0.1-1.2c0-0.7-0.1-1.4-0.1-2s0-1.2,0.1-1.7c0-0.3,0.1-0.6,0.1-0.8c0.1-0.4,0.1-0.8,0.2-1.1
	c0-0.2,0.1-0.4,0.2-0.5c0.1-0.3,0.2-0.6,0.4-0.9c0.1-0.2,0.2-0.4,0.3-0.5c0.1-0.2,0.2-0.4,0.4-0.6c0.3-0.4,0.6-0.8,1-1.2
	c0.1-0.1,0.2-0.2,0.3-0.3c0.3-0.4,0.7-0.9,1-1.4c0.4-0.7,0.7-1.5,0.9-2.7c0.1-0.5,0.2-1,0.2-1.5v-0.1l40.9-37
	c0.2,6,0.7,10.9,1.6,13.8c3.6,12.3,18.1,74.9,16.9,76.7c0,0,6.1,5.4,14.9,6.5l0,0c-0.3,0.8-0.4,1.9-0.1,3.3c0,0,0,0-0.1-0.1l0,0
	c-1-0.8-12.5-9.7-15.9-3.7c-2.1,3.7-5.1,9.2-7.2,14.7l0,0l0,0v0.1c-0.1,0.3-0.2,0.6-0.3,0.9c-0.1,0.2-0.1,0.3-0.2,0.5
	c0,0.1-0.1,0.3-0.1,0.4s-0.1,0.2-0.1,0.3c0,0,0,0,0,0.1c-1,3.1-1.5,6.1-1.4,8.8c0.2,3.4,1,6.1,2.9,8.2l0,0c0.7,0.8,1.5,1.5,2.5,2.1
	c0,0,0.1,0,0.1,0.1c0.3,0.2,0.7,0.4,1.1,0.6l0.1,0.1c0.4,0.2,0.8,0.4,1.2,0.6c0.1,0,0.1,0.1,0.2,0.1c0.4,0.2,0.9,0.3,1.3,0.5
	c0.1,0,0.2,0.1,0.2,0.1c0.5,0.2,1,0.3,1.5,0.5c0.1,0,0.2,0,0.2,0.1c0.5,0.2,1.1,0.3,1.6,0.4c0.1,0,0.2,0,0.2,0.1
	c0.6,0.1,1.2,0.3,1.9,0.4c0.1,0,0.1,0,0.2,0c0.7,0.1,1.4,0.3,2.1,0.4l0,0c2.7,0.5,5.4,1.6,7.9,3c0.3,0.2,0.7,0.4,1,0.6
	c0.6,0.4,1.2,0.7,1.8,1.1c8.5,5.6,14.8,14.1,15.4,14.2c0,0,0.1,0,0.2,0c0,0,0,0,0.1,0s0.1,0,0.2,0.1h0.1c0.2,0,0.3,0.1,0.5,0.1
	c0.1,0,0.2,0,0.3,0.1c0.1,0,0.2,0.1,0.3,0.1c0.1,0,0.2,0.1,0.4,0.1c0.1,0,0.2,0.1,0.4,0.1c0.1,0,0.3,0.1,0.4,0.1s0.3,0.1,0.4,0.1
	c0.2,0,0.4,0.1,0.5,0.1s0.2,0.1,0.3,0.1c-0.1,0-0.2-0.1-0.3-0.1c0.9,0.2,1.9,0.5,3,0.7c-0.1,0-0.1,0-0.2,0c0.1,0,0.1,0,0.2,0
	c0.3,0.1,0.7,0.1,1,0.2c0.1,0,0.2,0.1,0.4,0.1c0.5,0.1,0.9,0.2,1.4,0.3c0.1,0,0.2,0,0.3,0c0.4,0.1,0.8,0.1,1.2,0.2
	c0.2,0,0.3,0,0.5,0.1c0.4,0.1,0.8,0.1,1.3,0.2c0.1,0,0.2,0,0.3,0c0.5,0.1,1,0.1,1.6,0.2c0.1,0,0.3,0,0.4,0c0.4,0,0.8,0.1,1.2,0.1
	c0.2,0,0.3,0,0.5,0c0.5,0,1,0,1.6,0l0,0l0,0c0.6,0,1.1,0,1.7,0c0.1,0,0.3,0,0.4,0c2-0.1,4-0.5,5.6-1.1c-0.1,0-0.2,0.1-0.3,0.1
	c0.1,0,0.2-0.1,0.3-0.1c0.2-0.1,0.4-0.2,0.6-0.3c0.1-0.1,0.3-0.1,0.4-0.2c0.2-0.1,0.4-0.2,0.6-0.3c0.1-0.1,0.3-0.2,0.4-0.2
	c0.2-0.1,0.4-0.3,0.5-0.4s0.2-0.2,0.3-0.3c0.2-0.2,0.3-0.3,0.5-0.5c0.1-0.1,0.2-0.2,0.2-0.3c0.2-0.3,0.4-0.6,0.6-0.9l0,0l0,0l0,0
	c1.7-2.8,0.5-6.5-2-10.3l0,0c-0.6-1-1.4-1.9-2.2-2.9c-0.1-0.1-0.2-0.2-0.2-0.3c-0.5-0.6-1.1-1.3-1.6-1.9c-0.2-0.2-0.3-0.4-0.5-0.6
	l0,0c-6.2-6.6-14-12.2-14-12.1s-4.6-5.8-8.2-11.4c-0.6-0.9-1.1-1.8-1.6-2.6c0,0,0-0.1-0.1-0.1c-0.2-0.4-0.5-0.8-0.7-1.2l0,0
	c-0.2-0.4-0.4-0.7-0.6-1.1c0-0.1-0.1-0.1-0.1-0.2c-0.2-0.3-0.3-0.7-0.5-1c0,0,0-0.1-0.1-0.1c-0.1-0.3-0.2-0.5-0.3-0.8v-0.1
	c-0.1-0.3-0.2-0.5-0.2-0.7v-0.1c0-0.2-0.1-0.4-0.1-0.6c0-0.9-0.2-2.3-0.6-3.8c-0.5-1.9-1.3-3.9-2.1-5.7c-0.3-0.5-0.5-1-0.8-1.4
	c0.1,0.1,0.1,0.2,0.2,0.3c0.5-0.2,0.9-0.4,1.4-0.6l-1.1-140.1c0,0,13.7-15.6,14.5-21.1s16-45.2,22.3-85.5s0.3-55.6,0.3-55.6
	s-0.1,0.1-0.3,0.2c0,0.1,0.1,0.2,0.1,0.3c-0.8-3.1-2.7-11.1-4.9-21.1l18.7,21.4l-0.1,0.1l0.8,0.7l3.4,3.9c0.3-0.1,0.5-0.3,0.8-0.4
	l5.7,4.8c0.1-0.1,0.3-0.1,0.4-0.2l0,0c1.3,1.8,2.1,3.1,2.1,3.7c-0.1,4.6,16.8,23.1,16.8,23.1s9.5,13.8,12.2,13.1
	c2.7-0.7-1.6-7.9-1.6-7.9s4.7,4.8,7.8,5.6c3.2,0.8-4-9.2-4-9.2s8.4,4.8,11.3,4.9s-3.4-7.3-3.4-7.3c8,2.4,12.3,0.4,6.9-1.9
	c-5.5-2.3-22.7-20.7-22.7-20.7c14.6,2.7,16.2-6.3,13.1-5.4s-22.1-4.1-22.1-4.1s-1.7-2.3-4.1-5.8l0,0c0.1-0.1,0.2-0.2,0.2-0.2
	l-3.4-5.7c1.3-2.3,1.6-3.8,1.6-3.8s-24.8-39.9-31.7-47.7c-6.9-7.8-8.8-25.1-8.8-25.1c1.4-41.7-3.3-58.3-6.8-64.9l0,0
	c-0.3-2.7-0.7-4.6-1.4-5.5c-1.6-2.2-2.9-3.4-3.8-4.1l0,0c3.9-7,5.3-17.5,5.2-28.5c0-0.2-0.1-0.4-0.1-0.6c0.3,1.7,0.4,2.8,0.4,2.8
	c11.1-16.2-2.6-35.1-2.6-35.1c5.8-2.6,7.3-10.6,7.3-10.6c-3.4,3.1-5.4,0.1-5.4,0.1c4.2-6.2,0.6-14.7,0.6-14.7s-0.9,4.3-5.7,9.4
	c-0.5,0.5-1.3,1-2.3,1.3l4.3-88.4l-1.3,25.8c5.2-3.6,11.6-9.5,12.4-14c1.2-6.3-2.7-17.5-4.9-23.7l3.3-1.2c0,0-0.2-3.9-0.7-10.6
	l75.3,42.6l0.1,111.3l-0.2-0.1l0.3,87.3l0,0l0.1,81.3l38,21.9l171.9,99.5v-0.5l105.3,60.7l-0.1-283.1l0,0l0.1,283.1l210.2-120.9
	v-43.3l0,0v43.3l0,0v-43.3L1897.1,1307.6z M1032.3,1397.7l-0.1-15.7l-3.8-2.2v-48.5l-11.5,41.9l0,0l11.5-41.9l-4.9-3.1l-23.9,14.1
	l0,0l23.9-14.1l-176.2,103.5l116.4-68.4l-81.8-46.6l81.8,46.6l17.6-10.3l-90.6-51.7l-0.8-162.9l-7.2-4.1c-3.6-2-8-2-11.5,0.1
	l-198.6,116.1c-4.1,2.4-6.6,6.8-6.6,11.5l0.9,155.2l13,7.4l0.1,15.1l141.5,81.9l69.6-40.9v51.2l4,1.6l5.3-3v-55.3l98-57.6v49.9
	l4,2.4l5.3-3v-54.7L1032.3,1397.7z M605.5,1051.8L605.5,1051.8l15.9-9.3l0.1,18.2l-0.1-18.2L605.5,1051.8z M604.4,1035.5v3.5l0,0
	V1035.5z M509.9,1077.2c0.3-0.2,0.6-0.4,0.9-0.5C510.5,1076.9,510.2,1077,509.9,1077.2z M516.9,1073.2c-0.4,0.3-0.9,0.5-1.3,0.8
	C516,1073.7,516.4,1073.4,516.9,1073.2z M511.9,1076c0.7-0.4,1.3-0.8,2-1.2C513.3,1075.3,512.6,1075.7,511.9,1076z M525.8,1068
	c0.3-0.2,0.5-0.3,0.8-0.5C526.3,1067.7,526,1067.8,525.8,1068z M518.6,1072.1c0.9-0.5,1.8-1,2.7-1.6
	C520.4,1071.1,519.5,1071.6,518.6,1072.1z M500.8,1082.5c0.5-0.3,1.2-0.7,2.1-1.2C502.1,1081.8,501.3,1082.2,500.8,1082.5z
	 M585.2,1046.9l1,100.1l0,0L585.2,1046.9z M515.8,1107l53-31l0.6,61.5l-0.6-61.5L515.8,1107z M504.4,1080.4
	c-0.4,0.2-0.8,0.5-1.1,0.7C503.6,1080.9,504,1080.7,504.4,1080.4z M500,1082.9c0,0,0.1-0.1,0.3-0.2
	C500.1,1082.9,500,1082.9,500,1082.9z M635.9,1004c0,0,0.1,0,0.1-0.1C636,1004,636,1004,635.9,1004z M1139.5,1130.1
	c-0.7,0.5-1.3,1-2.1,1.4C1138.1,1131.1,1138.8,1130.6,1139.5,1130.1z M637.5,1060.5l0.1,9.2l0,0L637.5,1060.5z M1141.6,1128.5
	c-0.6,0.5-1.2,1-1.9,1.5C1140.3,1129.5,1141,1129,1141.6,1128.5z M1171.9,1570.9c-0.1,0.1-0.2,0.2-0.3,0.3
	C1171.6,1571.1,1171.7,1571,1171.9,1570.9z M1175.7,1569.4c-0.2,0-0.3,0.1-0.5,0.1C1175.4,1569.5,1175.6,1569.4,1175.7,1569.4z
	 M1176.4,1569.3c-0.1,0-0.3,0.1-0.4,0.1C1176.1,1569.3,1176.3,1569.3,1176.4,1569.3z M1175,1569.6c-0.1,0-0.2,0.1-0.4,0.1
	C1174.7,1569.6,1174.9,1569.6,1175,1569.6z M1133.8,1216.2c0.4,1.4,0.7,2.9,1.1,4.4C1134.6,1219,1134.2,1217.6,1133.8,1216.2z
	 M1135,1221.1c0.3,1.6,0.7,3.2,0.9,4.9C1135.7,1224.2,1135.4,1222.6,1135,1221.1z M527.7,1066.8c0.2-0.1,0.5-0.3,0.7-0.4
	C528.2,1066.6,528,1066.7,527.7,1066.8z M1141.7,1128.5c0.6-0.5,1.2-1,1.8-1.5C1142.9,1127.5,1142.3,1128,1141.7,1128.5z
	 M1151.2,1118.8L1151.2,1118.8l1.6-8.8c-0.3-6.4-0.8-12.9-1.1-16.8c-1.7-2.3-2.7-3.8-2.7-3.8s-0.4,0-1-0.1l0,0
	c-1,12.2-2,24.4-2.9,36.1c-0.5,0.5-1.1,1-1.6,1.5C1148.5,1122.6,1151.2,1118.8,1151.2,1118.8z M1174,1569.9c0.1,0,0.3-0.1,0.4-0.1
	C1174.2,1569.8,1174.1,1569.8,1174,1569.9z M1174.2,1034.7c8.7,0,18.1,0.2,23.7-0.9C1192.3,1034.9,1182.9,1034.7,1174.2,1034.7z
	 M1081.1,847.4c0-0.4,0-0.8,0-1.2l-2.9-1.6L1081.1,847.4z M1051.6,829.6l-12.7,7.4L1051.6,829.6L1051.6,829.6z M623.1,1086.9
	L623.1,1086.9l8-4.7L623.1,1086.9z M621.9,1126L621.9,1126l-8,4.7L621.9,1126z M1172.4,1570.6c-0.1,0.1-0.2,0.1-0.3,0.2
	C1172.2,1570.7,1172.3,1570.6,1172.4,1570.6z M1200.2,1033.2c-0.6,0.2-1.4,0.4-2.2,0.6C1198.8,1033.6,1199.5,1033.4,1200.2,1033.2z
	 M1172.7,1570.4c0.1-0.1,0.2-0.1,0.3-0.2C1172.9,1570.3,1172.8,1570.4,1172.7,1570.4z M1173.2,1570.1c0.1-0.1,0.3-0.1,0.4-0.2
	C1173.5,1570,1173.3,1570.1,1173.2,1570.1z M1177.1,1569.1c-0.1,0-0.3,0-0.4,0.1C1176.9,1569.2,1177,1569.2,1177.1,1569.1z
	 M610.8,1036.1l-0.1-17.8l0,0L610.8,1036.1z M1207.2,1634.1L1207.2,1634.1L1207.2,1634.1L1207.2,1634.1z M1211.4,1613.7
	c0.4,0,0.8,0,1.1,0l0,0C1212.2,1613.7,1211.8,1613.7,1211.4,1613.7z M1173.4,1616.7c0.7,0.5,1.5,1,2.2,1.5c-1.4-1.1-2.9-2-4.4-2.9
	c0.2,0.1,0.3,0.2,0.5,0.3C1172.2,1616,1172.8,1616.3,1173.4,1616.7z M877.8,1298.9L877.8,1298.9l-92.5,54.1L877.8,1298.9z
	 M1014.4,1382.4l-4.9,17.9l3.6-13.2L1014.4,1382.4z M1000.4,1405.7l-0.5,0.3l0.3-0.2L1000.4,1405.7z M1177.6,1619.9
	c1,0.8,1.9,1.7,2.8,2.5C1179.6,1621.5,1178.6,1620.7,1177.6,1619.9z M1146.7,1589.1c0-0.1,0.1-0.3,0.1-0.4c0,0,0,0,0,0.1
	C1146.8,1588.8,1146.7,1588.9,1146.7,1589.1C1146.7,1589,1146.7,1589.1,1146.7,1589.1z M1162.7,1612.1L1162.7,1612.1L1162.7,1612.1
	c2.7,0.5,5.4,1.6,7.9,3c0.2,0.1,0.4,0.2,0.5,0.3C1168.5,1613.8,1165.6,1612.6,1162.7,1612.1z M1177.6,1619.9c-0.7-0.5-1.3-1.1-2-1.6
	C1176.3,1618.8,1177,1619.3,1177.6,1619.9z M821.4,1505.3l26.2-15.3l6.4,2.6l-6.4-2.6L821.4,1505.3z M934.7,1444.7l-34.3,20.4l0,0
	L934.7,1444.7L934.7,1444.7z M561.7,1047.1c0.1-0.1,0.2-0.1,0.3-0.2C561.9,1047,561.8,1047,561.7,1047.1z M960.1,1429.9l0.1-0.3
	l23.9-14.2l-23.9,14.2L960.1,1429.9z M1007.6,1401.4l20.9-12.4L1007.6,1401.4L1007.6,1401.4z M1003.9,1403.6l-0.3,0.2l-1.3,0.8
	l3.9-2.3L1003.9,1403.6z M904.4,1403l1.6,1.8l-3.5-3.9L904.4,1403z M979,1361l-4.9-3.1l-23.9,14.1l23.9-14.1L979,1361z
	 M1149.5,1586.6c-0.6,0-1.3,0-2,0.1l0,0C1148.2,1586.6,1148.9,1586.6,1149.5,1586.6z M936.6,1437.9l-1.7,6l0.7-2.3L936.6,1437.9
	L936.6,1437.9z M901.9,1400.1L901.9,1400.1L901.9,1400.1L901.9,1400.1z M934.6,1445l0.1-0.3l0,0l0.8-2.7L934.6,1445L934.6,1445z
	 M639.1,1086.8l0.1,9.2l0,0L639.1,1086.8z M586.9,1032.3c0,0,0.1,0,0.1-0.1C586.9,1032.2,586.9,1032.3,586.9,1032.3z M666.1,903.8
	l0.2,30.9l0,0L666.1,903.8z M587.7,1031.8L587.7,1031.8L587.7,1031.8z M637.7,1048l-0.1-18.4L637.7,1048l15.9-9.3L637.7,1048z
	 M588.4,1031.4L588.4,1031.4L588.4,1031.4l0.1,16.9L588.4,1031.4z M695.6,886.7l0.2,30.6l0,0L695.6,886.7z M573.8,1040
	c-0.1,0.1-0.3,0.1-0.4,0.2C573.5,1040.1,573.6,1040.1,573.8,1040z M1105.3,1572.9L1105.3,1572.9L1105.3,1572.9L1105.3,1572.9z
	 M578,1037.5L578,1037.5L578,1037.5z M586.1,1032.8C586.1,1032.8,586.1,1032.7,586.1,1032.8C586.1,1032.7,586.1,1032.8,586.1,1032.8
	z M575.3,1039.1c-0.2,0.1-0.3,0.2-0.5,0.3C575,1039.3,575.1,1039.2,575.3,1039.1z M697.7,1081.5l-40.5,23.6l0,0l0,0L697.7,1081.5z
	 M1133.6,1276.7c-0.1,0.4-0.2,0.6-0.2,0.8C1133.4,1277.3,1133.5,1277.1,1133.6,1276.7z M657.2,1105.1l-15.6,9.1l-0.1-18.4l0.1,18.4
	L657.2,1105.1z M737.5,1011.2l0.8,46.6l0,0L737.5,1011.2z M722.6,901.5l38.4-22.6l-0.2-28.4l0.2,28.4L722.6,901.5L722.6,901.5z
	 M787.9,863.1L787.9,863.1l-0.2-28.3L787.9,863.1z M658.1,958l0.2,31.9L658.1,958L658.1,958z M693.1,918.9L693.1,918.9l1.8-1.1
	L693.1,918.9z"></path>
<path id="color_x5F_3" fill="#d2beca" d="M1028.4,1331.4v57.7l-38.5,22.9l19.6-11.6L1028.4,1331.4z M857.3,1489.8l18.9-68.9
	l-4.9-3.1l-23.9,14.1v58.1v-58.1l176.2-103.5l-23.9,14.1l4.1,4.6l-19.7,68.5l-23.9,14.2L979,1361l-4.9-3.1l-23.9,14.1l4.1,4.6
	l-19.6,68.1l-80.7,47.8L857.3,1489.8z M906,1404.8l-19.7,68.5l25.5-15.1l18.9-68.9l-4.9-3.1l-23.9,14.1L906,1404.8z M847.4,1489.9
	l6.6,2.7l1.8-57.9l-8.4-2.9L847.4,1489.9L847.4,1489.9z M1002.3,1404.6v65.3l5.3-3v-65.5L1002.3,1404.6z M895.1,1468.1v65.3l5.3-3
	V1465 M1177.3,688.3c0,0-11.5-1.6-25.1-4.9c-20.3-4.5-47.3-11.7-58.3-20.2l13.6-4.9c-2.9-13.6,16.7-27.2,16.7-27.2
	s15.8-1.8,20.9,2.4s38.3,13,39.3,23.7C1185.4,667.8,1191.5,667.2,1177.3,688.3z M1108.4,661.2c-0.5-1-0.8-1.9-1-2.9
	C1107.4,658.3,1107.1,659.3,1108.4,661.2z M1204.3,784.9c-3.1-41.8-18.6-41.3-21.5-43.3l0,0c-17.8-11.4-29.9-1.8-29.9-1.8v-6.1
	l-25,4.3c-1,4.5-2.1,8.6-2.1,8.6s-13.2,4.5-18.2,13.3l-0.2-0.3c-1,0.5-29.7,13.3-26.2,87.9l-22.7-21.8l-19.5,11.4l-7.5-4.2
	c8.5,14.7,33.6,56,51.4,62.1c8.4,2.9,15.1,1.2,20.1-2.1c-0.2,32-0.2,57.2-0.2,57.2l0.1,2.6c35,7.8,75.2,3.7,101.2-0.9l0.3-6.9
	c0,0,0.1-3.5,0.2-9.7l9.3-3.5C1214,931.6,1207.4,826.7,1204.3,784.9z"></path>
<path id="color_x5F_2" fill="#080dfd" d="M1083.6,1219.8c-5.2-6.1-0.3-9.7,6.9-11.8l-4.7,14
	C1085,1221.3,1084.2,1220.6,1083.6,1219.8z M1136.4,1229.1c-1.1-7.8-2.9-14.4-4.5-19.3c-3.7,0.7-6.8,0.1-9.3-1
	c-3.8,7.4-6.6,15.3-8.5,21.2C1123.5,1230.4,1132.3,1229.7,1136.4,1229.1z M770,774.5l0.4-52.9l-45.6,26.7l0.3,52.9L770,774.5z
	 M564.7,895.9l-0.3-54.4l-47,27.5l0.3,54.3L564.7,895.9z M515.8,1107l0.3,61.9l53.3-31.3l-0.6-61.5L515.8,1107z M881.8,1079.7
	l-468.5,273.9l-3-542.7L878.9,537L881.8,1079.7z M708.2,738.8l0.5,91.3l16.6-9.9l0.2,30.6l26.8-15.7l-0.2-30.9l34-20.2l0.8-91.3
	L708.2,738.8z M692.7,840.3L665.8,856l0.2,31.1l26.8-15.7L692.7,840.3z M692.4,797.2l-26.8,15.7l0.2,31.1l26.8-15.7L692.4,797.2z
	 M665.4,766.3l0.2,31.1l26.8-15.7l-0.2-31.1L665.4,766.3z M659.4,938.8L659.4,938.8l-15.9,9.3l0.1,18.4l14.6-8.5l0.2,31.9
	l129.8-76.4l-0.3-50.3l0,0l-0.2-28.3l-26.8,15.7l0.2,28.4l-38.4,22.6l-0.2-30.5l-26.8,15.7l0.2,30.6l-2.6,1.6l-0.2-30.8l-26.8,15.7
	l0.2,30.9L659.4,938.8z M653.5,1020.2l-15.9,9.3l0.1,18.4l15.9-9.3L653.5,1020.2z M626,789.8l0.2,31.1l26.8-15.7l-0.2-31.1
	L626,789.8z M589.8,809.8l0.2,31.1l26.8-15.7l-0.2-31.1L589.8,809.8z M588.6,864.6l0.3,50L502.6,965l0.3,50l129.8-75.4l-1-100.2
	L588.6,864.6z M499.8,859l0.5,94.8l81.9-47.9l-0.5-94.9L499.8,859z M586.2,1147l-1-100.1l-86.2,50.4l0.6,100.6L586.2,1147z
	 M588.4,1031.4l0.1,16.9l15.9-9.3l-0.1-17c2-1.2,4.2-2.4,6.3-3.6l0.1,17.8l15.9-9.3l-0.1-17.5c5.7-3.2,9.7-5.5,9.7-5.5l-0.3-52.4
	l-136.3,79.1l0.3,52.4C500,1082.9,574.6,1039.6,588.4,1031.4z M605.8,1107l-0.1-18.4l31.8-18.8l-0.1-18.4l-15.9,9.3l-0.1-18.2
	l-15.9,9.3l0.1,18.4v0.1l0.1,18.4l-15.9,9.3l0.1,18.4L605.8,1107z M621.9,1126l-0.1-18.4l-15.9,9.3l0.1,18.4L621.9,1126z
	 M639.2,1096l-0.1-18.4l-15.9,9.3l0.1,18.4L639.2,1096z M738.3,1057.8l-0.8-46.6l-40,24.3l-0.3-47.8l-40,23.9v56.5l-15.8,9.2
	l0.1,18.4l0.1,18.4l15.6-9.1l0,0L738.3,1057.8z M741.6,954l-37,21.7l0.2,42.8l36.5-21.4L741.6,954z M794.4,1019.1l-0.5-88.7
	l-38.2,22.3l0.5,88.9L794.4,1019.1z M1814.1,939.6l-210.2,121.5l0.2,363.9l210.2-120.9L1814.1,939.6z M1288.8,1162.1l0.1,81.3
	l0.2-0.1L1288.8,1162.1z M1288.5,879.3l0.2,195.5l146.7,84l63.5-36.7v-121.6L1288.5,879.3z M890.8,1301.3L680,1424.6l-0.9-162.8
	L890,1138.4L890.8,1301.3z M877.8,1298.9l-0.7-143L692,1264.2l0.8,142.9L877.8,1298.9z M954.3,1376.5l-17.7,61.3l0,0L954.3,1376.5z
	 M906,1404.7L906,1404.7L906,1404.7L906,1404.7z M964.3,1363.6L964.3,1363.6l9.8-5.8l4.9,3.1l-4.9-3.1L964.3,1363.6z M1016.9,1373.3
	l-5.8,21l0,0L1016.9,1373.3L1016.9,1373.3z M1028.4,1379.8v4.4l3.8-2.2L1028.4,1379.8z M847.4,1489.9V1439l-52.5,30.7l-88.4-50.3
	L882,1316.7l81.8,46.6l17.6-10.3l-90.6-51.7L680,1424.6l141.5,80.6l26.2-15.3L847.4,1489.9z M1099.6,714.8c2.4,4.5,4.3-1.2,6,1
	c1.7,2.3,4-0.1,3-6.1s-9.1-4-9.1-4S1097.2,710.2,1099.6,714.8z M1108.4,661.2c-0.2-0.5-0.4-1-0.6-1.4c0,0.1-0.1,0.1-0.1,0.2
	C1107.9,660.3,1108.1,660.7,1108.4,661.2z M1152.2,683.4c-15-3.3-33.6-8.1-46.7-13.8c0.3,7.2,4.3,12.9,4.3,12.9
	c-0.5,5,12.8,8.1,19.8,10.8s2.3,18.4,2.3,18.4h3.7l0.1-5.5c0,0-2-6,9.3-11.8c11.2-5.8,1,13,1,13c2.7,9.6,11.5,5.2,19.1,5.1
	s6.8-6.9,9.9-14.6c1.6-3.9,2.1-6.1,1.8-9.6C1174.3,687.9,1164,686.3,1152.2,683.4z M1017.7,776.8L993.4,791l18.1-10.6l5.5,3.6
	l-19.4,11.2l-5.4-3.6l-16.1,9.4l62.8,35.8l41.6-24.3L1017.7,776.8z M1102.9,952.5l-0.1-2.6l10.3,197.4c3.1-3.9,7.5-7.8,13.5-10.1
	c8-3,14.3-7.8,18.5-11.7c0.9-11.7,1.9-23.9,2.9-36.1c-2.9-0.3-11.7-1.9-11.1-10.5c0.2-3.7,1.7-5.1,3.4-5.3c-1.9-7-1.2-18.8,7.3-24.6
	c0,0-0.9-7.1,4.9-11.1c3-33.9,5.7-59.7,6.8-61.1c1.3-1.5,3.1,24.6,4.8,58.2c11.6-0.7,29.2,0.7,36.1-1.7l4.3-88.4l-0.3,6.9
	C1178.2,956.2,1137.9,960.3,1102.9,952.5z M1102.8,949.7L1102.8,949.7L1102.8,949.7z M1155.9,1565.9c0,0,6.1,5.4,14.9,6.5
	c1-2.6,4.6-3,7.1-3.4c0.1,0,0.3,0,0.4-0.1c0.6-0.1,1.1-0.2,1.5-0.4c0.2-0.1,0.3-0.1,0.5-0.1c0.1,0,0.2,0,0.2,0.1
	c0.1,0,0.2,0.1,0.3,0.1c0.5,0.3,1,0.8,1.5,1.5c0.1,0.2,0.2,0.4,0.4,0.6c0.1,0.1,0.1,0.2,0.2,0.3c0.5-0.2,0.9-0.4,1.4-0.6l-1.1-140.1
	c0,0,13.7-15.6,14.5-21.1s16-45.2,22.3-85.5s0.3-55.6,0.3-55.6s-0.1,0.1-0.3,0.2c0.3,1.1,0.4,1.7,0.4,1.7c-38.2,39.2-87,7.7-87,7.7
	s0.1-0.4,0.3-1.1c-3.3,6-8.3,20-5,47.9c5.1,42.4,21.2,72.7,15.1,89c-0.7,1.9-1.4,4.3-2,6.9l0,0c-10.9,7.6-30.7,16.2-39.1,39.9
	c-7.8,21.8-22.4,32.4-24.4,33.8c2.5,0.8,5.3,3.1,4.1,10c0,0,14.3-6.6,14.2,5.4c0,1.1-0.1,2-0.1,2.8l40.9-37c0.2,6,0.7,10.9,1.6,13.8
	C1142.5,1501.6,1157,1564.1,1155.9,1565.9z"></path>
<path id="color_x5F_1" fill="#0984E3" d="M1212.9,1037c0,0-1.6,8-7.3,10.6c0,0,13.7,18.9,2.6,35.1c0,0-3.3-26.1-7.4-28.6
	c0,0-5.9,19.6-41.4,6c0,0-6.1,14.5-2.8,27.7c0,0-6.9-4.9-5.9-9.1c0,0-3.5,3-7.7,0s-6.8-21.8,4.5-29.7c0,0-1.3-9.9,8.8-12.9
	c10.2-3,41.3,1,46.1-4.1s5.7-9.4,5.7-9.4s3.6,8.4-0.6,14.7C1207.5,1037.1,1209.5,1040.1,1212.9,1037z M782.6,277
	C761.1,55.3,329,24,344.5,426.3l1.6,287.8c0.1,22.1,18.1,39.9,40.2,39.8l0,0c22.1-0.1,39.9-18.1,39.8-40.2l-1.6-287.8
	c0-0.5,0-1,0-1.5c0.3-3.3,0-6.1,0-8C423.2,145,702.6,149.1,704.9,299l1.2,215.5c0.1,22.1,18.1,39.9,40.2,39.8l0,0
	c22.1-0.1,39.9-18.1,39.8-40.2C786.1,514.1,785,282,782.6,277z M1253.8,1260c1.3-2.3,1.6-3.8,1.6-3.8s-24.8-39.9-31.7-47.7
	c-6.9-7.8-8.8-25.1-8.8-25.1c1.4-41.7-3.3-58.3-6.8-64.9l0,0c-0.3-2.7-0.7-4.6-1.4-5.5c-1.6-2.2-2.9-3.4-3.8-4.1
	c-3.3,5.9-8.4,9.5-16.1,9c0,0,0,0-0.1,0l2.8,8.1l-4.7-2c0.5,6.1,0,12.5-3.3,15.3c-4.5,3.8-14.1,0.8-21.3-6l-2,2.6l-4.1-10.3
	c-1.2-2.1-2.2-4.5-2.8-6.9l0,0c0,0-9,12.6-24.5,18.4s-20,22.4-20,22.4l-27,80.8l1.9,72.3c0,0,1.4,1.2,4,2.2l1.1,6.3
	c5.6,4.3,17.8-0.7,17.8-0.7v-6.8c0.6-0.3,1.2-0.6,1.8-0.9l5.2-44.8v-28.7c0,0,5.9-24.1,16.4-39.3c0,0,8.7,16.2,9.5,39.7
	s-4.1,38.2-4.1,38.2s48.8,31.5,87-7.7c0,0-2.4-9.6-5.3-22.5l18.7,21.4l-0.1,0.1l0.8,0.7l3.4,3.9c0.3-0.1,0.5-0.3,0.8-0.4l5.7,4.8
	c6.5-2.7,12.9-12.2,12.9-12.2L1253.8,1260z M256.2,1264l157.2,89.6l-3-542.7l-157.2-89.6L256.2,1264z M1814.3,1304.1l-0.2-364.5
	L1814.3,1304.1L1814.3,1304.1z M1603.9,1061.1l210.2-121.5L1603.9,1061.1l-105-60.5v121.6l105.1,60.6L1603.9,1061.1z M1289,1243.4
	l209.7,121.4l0.1-129.3c0-24.8-10-46.7-31.8-58.5l-178.6-102.2L1289,1243.4z M890,1138.4l-7.2-4.1c-3.6-2-8-2-11.5,0.1l-198.6,116.1
	c-4.1,2.4-6.6,6.8-6.6,11.5l0.9,155.2l13,7.4l-0.9-162.8L890,1138.4z M1002.3,1404.6l3.9-2.3l-2.3,1.4l-4,2.4L1002.3,1404.6z
	 M1028.4,1389.1l-20.9,12.4v10.8l24.7-14.5l-0.1-15.7l-3.8,2.2v4.8H1028.4z M891.1,1470.5l-37.1,22l-6.4-2.6l-26.2,15.3l-141.5-80.6
	l0.1,15.1l141.5,81.9l69.6-40.9L891.1,1470.5L891.1,1470.5z M998.3,1406.9l-14.3,8.5l-23.9,14.2l-0.1,0.3l-25.5,15.1l2.1-7.1l0,0
	l-2,6.8l-34.3,20.4v10.2l98-57.6V1406.9z M1011.1,1394.3l-1.6,6L1011.1,1394.3L1011.1,1394.3z M1056.6,1506.4
	c6.3,6,3.1,19.6,3.2,21.9c0.1,2.9,6.2,22.8,10.2,22.8s11,19,11,19c10.7-8.2,19.1-3.9,23.6,0.1c0.5,1.8,1,3.4,1.3,4.9
	c-2.4-10.9-10.5-30.2-13.3-41.6c-0.1-0.5-0.2-1-0.3-1.5v-0.1c-0.1-0.5-0.2-0.9-0.3-1.3v-0.1c-0.1-0.4-0.1-0.8-0.2-1.1
	c0-0.1,0-0.1,0-0.2c-0.1-0.4-0.1-0.8-0.1-1.2c0-0.7-0.1-1.4-0.1-2s0-1.2,0.1-1.7c0-0.3,0.1-0.6,0.1-0.8c0.1-0.4,0.1-0.8,0.2-1.1
	c0-0.2,0.1-0.4,0.2-0.5c0.1-0.3,0.2-0.6,0.4-0.9c0.1-0.2,0.2-0.4,0.3-0.5c0.1-0.2,0.2-0.4,0.4-0.6c0.3-0.4,0.6-0.8,1-1.2
	c0.1-0.1,0.2-0.2,0.3-0.3c0.3-0.4,0.7-0.9,1-1.4c0.4-0.7,0.7-1.5,0.9-2.7c0.1-0.5,0.2-1,0.2-1.5c0.1-0.8,0.1-1.8,0.2-2.9
	c0-2.6-0.7-4.4-1.7-5.5c-0.6-0.6-1.3-1.1-2.1-1.3c-0.2-0.1-0.4-0.1-0.6-0.2c-0.4-0.1-0.8-0.2-1.3-0.2c-0.2,0-0.4,0-0.7,0
	c-0.4,0-0.9,0-1.3,0.1c-0.4,0-0.8,0.1-1.2,0.2c-0.3,0-0.6,0.1-0.9,0.2s-0.7,0.2-1,0.2c-2,0.5-3.4,1.2-3.4,1.2
	c2.1-12-7.8-10.3-7.8-10.3S1063.1,1502.7,1056.6,1506.4L1056.6,1506.4z M1147.5,1586.7c11.3-1.4,11.1,11.6,11.1,11.6
	s13.2,6.4,19.1,7.6s14.6,21.9,18.6,13.5c2.4-5,10.2-5.9,16.3-5.8c0.3,0.3,0.6,0.7,0.9,1c-6.3-7.1-14.9-13.3-14.9-13.2
	c0,0.1-4.6-5.8-8.2-11.4c-0.6-0.9-1.1-1.8-1.6-2.6c0,0,0-0.1-0.1-0.1c-0.2-0.4-0.5-0.8-0.7-1.2l0,0c-0.2-0.4-0.4-0.7-0.6-1.1
	c0-0.1-0.1-0.1-0.1-0.2c-0.2-0.3-0.3-0.7-0.5-1c0,0,0-0.1-0.1-0.1c-0.1-0.3-0.2-0.5-0.3-0.8v-0.1c-0.1-0.3-0.2-0.5-0.2-0.7v-0.1
	c0-0.2-0.1-0.4-0.1-0.6c0-0.9-0.2-2.3-0.6-3.8c-0.5-1.9-1.3-3.9-2.1-5.7c-0.3-0.5-0.5-1-0.8-1.4c-0.1-0.2-0.2-0.4-0.4-0.6
	c-0.5-0.7-1-1.3-1.5-1.5c-0.1,0-0.2-0.1-0.3-0.1c-0.1,0-0.2,0-0.2-0.1c-0.2,0-0.3,0-0.5,0.1c-0.4,0.2-0.9,0.3-1.5,0.4
	c-0.1,0-0.2,0-0.4,0.1c-3.3,0.6-8.5,1.1-7.2,6.8c0,0,0,0-0.1-0.1l0,0c-1-0.8-12.5-9.7-15.9-3.7c-2.6,4.7-6.7,12.1-8.5,18.9
	C1146.5,1589.6,1147,1588.1,1147.5,1586.7z"></path>
</svg>